<svg width="396" height="432" viewBox="0 0 396 432" fill="none" xmlns="http://www.w3.org/2000/svg">
<path d="M320.263 158.476C343.809 185.885 359.038 215.952 355.458 242.734C351.963 269.435 329.677 292.929 306.118 325.502C282.572 358.155 257.614 399.973 221.668 410.386C185.641 420.799 138.631 399.892 101.605 367.239C64.5799 334.586 37.5394 290.342 40.2021 248.529C42.8647 206.715 75.1496 167.403 112.166 139.999C149.182 112.594 190.967 97.0677 227.826 101.724C264.685 106.38 296.632 131.071 320.263 158.476Z" fill="#1C4465"/>
<path fill-rule="evenodd" clip-rule="evenodd" d="M190.611 217.765C214.899 217.765 227.942 233.966 230.367 250.419C232.831 267.249 230.02 281.183 230.722 301.529C231.199 315.229 237.239 324.38 241.112 336.594C244.984 348.808 141.631 351.888 142.247 340.465C142.863 329.041 150.257 317.339 150.523 303.109C150.793 288.601 148.724 279.894 149.007 256.292C149.218 237.662 166.314 217.765 190.611 217.765Z" fill="black"/>
<path fill-rule="evenodd" clip-rule="evenodd" d="M91.1053 422C90.1751 410.647 95.2935 370.161 111.116 339.93C170.214 307.556 244.361 322.976 273.678 339.93C283.605 349.905 290.781 416.172 288.611 420.929" fill="#FFD98E"/>
<path d="M125.03 420.919C125.961 413.479 127.436 401.489 129.842 390.384" stroke="#FF8364" stroke-width="5.73" stroke-linecap="round" stroke-linejoin="round"/>
<path d="M256.215 420.919C255.284 413.479 253.809 401.489 251.403 390.384" stroke="#FF8364" stroke-width="5.73" stroke-linecap="round" stroke-linejoin="round"/>
<path fill-rule="evenodd" clip-rule="evenodd" d="M153.068 270.868C153.067 269.569 153.452 268.299 154.174 267.219C154.896 266.138 155.923 265.295 157.124 264.797C158.326 264.299 159.648 264.167 160.925 264.419C162.201 264.671 163.374 265.295 164.295 266.212C165.216 267.129 165.845 268.299 166.1 269.572C166.356 270.846 166.228 272.166 165.732 273.367C165.236 274.568 164.395 275.595 163.315 276.319C162.234 277.043 160.963 277.43 159.662 277.433C158.797 277.435 157.94 277.266 157.141 276.937C156.341 276.608 155.614 276.125 155.002 275.515C154.39 274.906 153.904 274.181 153.572 273.384C153.24 272.586 153.069 271.732 153.068 270.868Z" fill="#D18C65"/>
<path fill-rule="evenodd" clip-rule="evenodd" d="M213.41 270.868C213.409 269.569 213.794 268.298 214.517 267.217C215.239 266.136 216.267 265.293 217.469 264.796C218.671 264.298 219.995 264.167 221.271 264.42C222.548 264.673 223.721 265.298 224.642 266.217C225.562 267.135 226.19 268.306 226.444 269.58C226.698 270.855 226.568 272.176 226.07 273.377C225.572 274.577 224.729 275.604 223.647 276.326C222.564 277.048 221.292 277.433 219.99 277.433C218.246 277.433 216.573 276.742 215.339 275.51C214.105 274.279 213.411 272.61 213.41 270.868Z" fill="#D18C65"/>
<path fill-rule="evenodd" clip-rule="evenodd" d="M216.815 157.778C210.176 152.609 208.539 158.384 207.5 161.819C206.461 165.254 206.538 171.312 211.742 171.181C216.302 175.263 220.548 169.978 221.853 167.293C223.157 164.607 226.359 158.783 216.815 157.778Z" fill="#FF8364"/>
<path d="M221.205 154.095C218.915 154.899 217.629 155.995 216.9 157.899" stroke="#FFD98E" stroke-width="2.83" stroke-linecap="round" stroke-linejoin="round"/>
<path fill-rule="evenodd" clip-rule="evenodd" d="M173.524 188.451C173.523 186.93 173.974 185.442 174.82 184.176C175.666 182.91 176.868 181.923 178.276 181.339C179.683 180.756 181.233 180.601 182.728 180.896C184.223 181.191 185.597 181.922 186.677 182.997C187.756 184.071 188.492 185.441 188.792 186.933C189.092 188.425 188.942 189.972 188.361 191.379C187.781 192.786 186.795 193.989 185.53 194.837C184.264 195.685 182.775 196.14 181.251 196.143C180.238 196.146 179.234 195.949 178.297 195.563C177.36 195.178 176.508 194.612 175.79 193.897C175.072 193.183 174.503 192.334 174.114 191.4C173.725 190.465 173.525 189.463 173.524 188.451Z" fill="#6BD5E1"/>
<path fill-rule="evenodd" clip-rule="evenodd" d="M120.14 191.846L141.491 186.435L150.14 220.464L128.794 225.852L120.14 191.846Z" fill="#DFDFDF"/>
<path fill-rule="evenodd" clip-rule="evenodd" d="M124.638 195.596L139.328 191.873L140.461 196.332L125.772 200.046L124.638 195.596Z" fill="#FF8364"/>
<path d="M127.004 204.895L141.694 201.173" stroke="#6BD5E1" stroke-width="3.11" stroke-linecap="round" stroke-linejoin="round"/>
<path d="M128.236 209.736L142.93 206.013" stroke="#6BD5E1" stroke-width="3.11" stroke-linecap="round" stroke-linejoin="round"/>
<path d="M129.527 214.788L144.23 211.061" stroke="#6BD5E1" stroke-width="3.11" stroke-linecap="round" stroke-linejoin="round"/>
<path d="M130.76 219.669L136.526 218.205" stroke="#6BD5E1" stroke-width="3.11" stroke-linecap="round" stroke-linejoin="round"/>
<path d="M143.151 216.525L145.463 215.942" stroke="#6BD5E1" stroke-width="3.11" stroke-linecap="round" stroke-linejoin="round"/>
<path fill-rule="evenodd" clip-rule="evenodd" d="M105.986 114.584L161.236 88.3202L178.503 124.517L123.253 150.786L105.986 114.584Z" fill="#DFDFDF"/>
<path d="M125.093 142.78L130.589 126.718L140.83 128.648L144.851 108.841L154.746 110.485L157.625 96.5106" stroke="#FF8364" stroke-width="3.11" stroke-linecap="round" stroke-linejoin="round"/>
<path fill-rule="evenodd" clip-rule="evenodd" d="M128.65 127.75C128.409 127.243 128.324 126.675 128.406 126.119C128.488 125.563 128.733 125.044 129.11 124.628C129.488 124.211 129.98 123.915 130.526 123.777C131.071 123.639 131.645 123.666 132.176 123.854C132.706 124.042 133.168 124.383 133.505 124.833C133.841 125.283 134.037 125.823 134.066 126.384C134.096 126.945 133.958 127.502 133.67 127.985C133.383 128.468 132.959 128.855 132.451 129.097C132.113 129.259 131.746 129.352 131.372 129.371C130.998 129.391 130.624 129.337 130.271 129.212C129.917 129.086 129.593 128.893 129.315 128.642C129.037 128.391 128.811 128.088 128.65 127.75Z" fill="#FFD98E"/>
<path fill-rule="evenodd" clip-rule="evenodd" d="M142.413 110.516C142.171 110.008 142.085 109.439 142.166 108.882C142.248 108.325 142.493 107.804 142.871 107.386C143.248 106.968 143.742 106.671 144.288 106.533C144.835 106.395 145.411 106.422 145.942 106.61C146.474 106.798 146.937 107.14 147.274 107.591C147.611 108.043 147.807 108.584 147.836 109.146C147.865 109.708 147.726 110.267 147.438 110.75C147.149 111.234 146.723 111.621 146.214 111.863C145.876 112.025 145.509 112.118 145.135 112.137C144.761 112.157 144.386 112.103 144.033 111.977C143.68 111.852 143.355 111.659 143.077 111.408C142.799 111.157 142.574 110.854 142.413 110.516Z" fill="#FFD98E"/>
<path fill-rule="evenodd" clip-rule="evenodd" d="M247.071 141.042C247.071 139.114 247.644 137.229 248.717 135.626C249.791 134.024 251.316 132.775 253.101 132.038C254.885 131.301 256.848 131.109 258.742 131.486C260.636 131.864 262.375 132.793 263.739 134.158C265.103 135.523 266.032 137.26 266.406 139.152C266.781 141.043 266.585 143.003 265.843 144.783C265.102 146.563 263.848 148.084 262.241 149.153C260.633 150.221 258.745 150.79 256.813 150.786C254.228 150.782 251.749 149.754 249.922 147.927C248.096 146.1 247.07 143.623 247.071 141.042Z" fill="#FFD98E"/>
<path d="M273.306 139.34C273.775 141.006 273.852 142.758 273.53 144.459C273.208 146.159 272.497 147.763 271.452 149.144C270.407 150.524 269.056 151.645 267.505 152.418C265.954 153.192 264.245 153.597 262.512 153.601C261.777 153.602 261.043 153.532 260.322 153.39" stroke="#FF8364" stroke-width="3.11" stroke-linecap="round" stroke-linejoin="round"/>
<path fill-rule="evenodd" clip-rule="evenodd" d="M250.912 148.442L247.17 155.142L262.62 157.62L260.929 149.816" fill="#FFD98E"/>
<path fill-rule="evenodd" clip-rule="evenodd" d="M254.529 141.042C254.529 140.587 254.664 140.143 254.917 139.765C255.17 139.386 255.529 139.092 255.95 138.918C256.371 138.744 256.834 138.698 257.281 138.787C257.727 138.876 258.138 139.095 258.46 139.416C258.782 139.738 259.001 140.147 259.09 140.593C259.179 141.039 259.133 141.502 258.959 141.922C258.785 142.342 258.489 142.701 258.111 142.953C257.732 143.206 257.287 143.341 256.831 143.341C256.221 143.341 255.635 143.099 255.203 142.668C254.771 142.236 254.529 141.652 254.529 141.042Z" fill="#1B3C87"/>
<path fill-rule="evenodd" clip-rule="evenodd" d="M270.383 138.743C270.383 138.288 270.518 137.844 270.771 137.465C271.024 137.087 271.384 136.793 271.805 136.619C272.225 136.445 272.688 136.399 273.135 136.488C273.582 136.577 273.992 136.796 274.314 137.117C274.636 137.439 274.856 137.848 274.944 138.294C275.033 138.74 274.988 139.202 274.813 139.623C274.639 140.043 274.344 140.402 273.965 140.654C273.587 140.907 273.141 141.042 272.686 141.042C272.075 141.041 271.49 140.798 271.059 140.367C270.627 139.936 270.384 139.352 270.383 138.743Z" fill="#FFD98E"/>
<path fill-rule="evenodd" clip-rule="evenodd" d="M85.4089 67.7901L99.8422 71.6832L85.6293 124.221L71.196 120.341L85.4089 67.7901Z" fill="#FF8364"/>
<path d="M75.7837 103.381L83.7312 105.527" stroke="#FFD98E" stroke-width="4.23" stroke-linecap="round" stroke-linejoin="round"/>
<path d="M73.2605 112.703L81.2125 114.845" stroke="#FFD98E" stroke-width="4.23" stroke-linecap="round" stroke-linejoin="round"/>
<path d="M78.3025 94.0723L86.2545 96.2187" stroke="#FFD98E" stroke-width="4.23" stroke-linecap="round" stroke-linejoin="round"/>
<path d="M80.8257 84.7458L88.7732 86.8877" stroke="#FFD98E" stroke-width="4.23" stroke-linecap="round" stroke-linejoin="round"/>
<path d="M83.3445 75.4282L91.2965 77.5701" stroke="#FFD98E" stroke-width="4.23" stroke-linecap="round" stroke-linejoin="round"/>
<path fill-rule="evenodd" clip-rule="evenodd" d="M234.068 56.8964L288.567 70.0308L279.572 107.13L225.095 93.9915L234.068 56.8964Z" fill="#DFDFDF"/>
<path fill-rule="evenodd" clip-rule="evenodd" d="M266.663 97.1168C266.936 95.9893 267.537 94.9678 268.391 94.1816C269.246 93.3953 270.314 92.8796 271.462 92.6996C272.61 92.5196 273.785 92.6835 274.839 93.1704C275.894 93.6573 276.78 94.4455 277.386 95.4353C277.991 96.425 278.29 97.5719 278.243 98.7308C278.195 99.8897 277.805 101.009 277.121 101.946C276.437 102.884 275.49 103.598 274.399 103.998C273.309 104.398 272.124 104.466 270.995 104.194C269.48 103.829 268.173 102.878 267.361 101.551C266.549 100.224 266.298 98.6287 266.663 97.1168Z" fill="#FF8364"/>
<path fill-rule="evenodd" clip-rule="evenodd" d="M268.399 101.944L264.482 112.142L269.951 110.907L273.464 114.162L274.17 103.053" fill="#FF8364"/>
<path d="M237.289 66.5193L280.314 76.8921" stroke="#6BD5E1" stroke-width="3.11" stroke-linecap="round" stroke-linejoin="round"/>
<path d="M234.797 76.699L260.78 82.9631" stroke="#6BD5E1" stroke-width="3.11" stroke-linecap="round" stroke-linejoin="round"/>
<path fill-rule="evenodd" clip-rule="evenodd" d="M147.581 61.957L141.734 55.6301L150.145 53.7306L158.56 51.8312L156.001 60.0576L153.442 68.2795L147.581 61.957Z" fill="#6BD5E1"/>
<path fill-rule="evenodd" clip-rule="evenodd" d="M263.753 194.603L255.743 197.8L256.971 189.269L258.199 180.737L264.977 186.058L271.759 191.384L263.753 194.603Z" fill="#FFD98E"/>
<path d="M198.001 91.8271C198.001 91.0012 198.246 90.1938 198.706 89.507C199.166 88.8203 199.819 88.285 200.583 87.9689C201.347 87.6529 202.189 87.5702 203 87.7313C203.811 87.8924 204.557 88.2902 205.142 88.8742C205.727 89.4582 206.125 90.2023 206.286 91.0124C206.448 91.8225 206.365 92.6622 206.048 93.4253C205.732 94.1883 205.196 94.8405 204.508 95.2994C203.82 95.7583 203.011 96.0032 202.184 96.0032C201.075 96.0032 200.011 95.5632 199.226 94.7801C198.442 93.9969 198.001 92.9347 198.001 91.8271Z" stroke="#FF8364" stroke-width="3.11" stroke-linecap="round" stroke-linejoin="round"/>
<path fill-rule="evenodd" clip-rule="evenodd" d="M81.1316 161.787C81.1316 160.962 81.3769 160.154 81.8365 159.467C82.2962 158.781 82.9494 158.245 83.7138 157.929C84.4781 157.613 85.3191 157.531 86.1305 157.692C86.9419 157.853 87.6873 158.251 88.2722 158.835C88.8572 159.419 89.2556 160.163 89.417 160.973C89.5784 161.783 89.4956 162.623 89.179 163.386C88.8624 164.149 88.3263 164.801 87.6384 165.26C86.9505 165.719 86.1418 165.964 85.3145 165.964C84.2051 165.964 83.1412 165.524 82.3567 164.74C81.5723 163.957 81.1316 162.895 81.1316 161.787Z" fill="#FFD98E"/>
<path fill-rule="evenodd" clip-rule="evenodd" d="M175.769 295.579H203.74C203.74 295.579 203.87 324.43 203.74 335.781C203.74 340.465 175.778 339.93 175.778 335.781L175.769 295.579Z" fill="#D18C65"/>
<path fill-rule="evenodd" clip-rule="evenodd" d="M161.461 267.994C161.461 246.566 174.505 229.193 190.62 229.193C206.735 229.193 219.783 246.566 219.783 267.994C219.783 289.422 206.74 306.8 190.62 306.8C174.5 306.8 161.461 289.427 161.461 267.994Z" fill="#E49D75"/>
<path fill-rule="evenodd" clip-rule="evenodd" d="M206.367 226.413C198.959 243.598 168.266 260.374 155.34 264.299C153.298 254.038 166.526 210.333 206.367 226.413Z" fill="black"/>
<path fill-rule="evenodd" clip-rule="evenodd" d="M189.963 225.883C184.355 228.016 202.589 257.132 224.439 264.299C233.358 251.622 212.794 225.277 189.963 225.883Z" fill="black"/>
<path fill-rule="evenodd" clip-rule="evenodd" d="M231.657 30.8161C231.657 29.2935 232.108 27.8049 232.955 26.5385C233.802 25.2721 235.006 24.2849 236.414 23.7018C237.823 23.1187 239.374 22.966 240.869 23.2628C242.365 23.5596 243.739 24.2927 244.818 25.3694C245.896 26.446 246.63 27.8178 246.928 29.3112C247.225 30.8046 247.072 32.3525 246.488 33.7591C245.904 35.1656 244.915 36.3676 243.647 37.213C242.378 38.0583 240.887 38.5091 239.362 38.5082C237.319 38.5082 235.359 37.6978 233.914 36.2552C232.469 34.8127 231.657 32.8562 231.657 30.8161Z" fill="#FFD98E"/>
<path d="M98.7717 233.077C98.7717 231.656 99.1938 230.267 99.9845 229.085C100.775 227.904 101.899 226.983 103.214 226.439C104.529 225.895 105.976 225.753 107.372 226.03C108.768 226.308 110.05 226.992 111.057 227.997C112.063 229.001 112.749 230.282 113.026 231.675C113.304 233.069 113.161 234.514 112.617 235.826C112.072 237.139 111.15 238.261 109.966 239.051C108.783 239.84 107.391 240.262 105.968 240.262C104.06 240.262 102.229 239.505 100.88 238.157C99.5299 236.81 98.7717 234.982 98.7717 233.077Z" stroke="#6BD5E1" stroke-width="3.11" stroke-linecap="round" stroke-linejoin="round"/>
<path d="M258.221 230.05C258.22 229.223 258.465 228.415 258.925 227.727C259.384 227.039 260.038 226.502 260.803 226.185C261.568 225.868 262.41 225.784 263.223 225.945C264.035 226.106 264.782 226.504 265.368 227.088C265.954 227.673 266.353 228.418 266.515 229.229C266.677 230.04 266.594 230.881 266.278 231.645C265.961 232.409 265.424 233.062 264.735 233.522C264.047 233.981 263.237 234.226 262.409 234.226C261.859 234.227 261.314 234.12 260.806 233.91C260.298 233.7 259.837 233.393 259.448 233.005C259.059 232.617 258.751 232.157 258.54 231.65C258.33 231.143 258.221 230.599 258.221 230.05V230.05Z" stroke="#FF8364" stroke-width="3.11" stroke-linecap="round" stroke-linejoin="round"/>
<path fill-rule="evenodd" clip-rule="evenodd" d="M190.611 218.097C214.899 218.097 227.942 234.303 230.367 250.756C232.831 267.581 230.02 281.515 230.722 301.861C231.199 315.566 237.239 324.712 241.112 336.931C244.984 349.149 141.631 352.225 142.247 340.797C142.863 329.369 150.257 317.672 150.523 303.441C150.793 288.937 148.724 280.226 149.007 256.629C149.218 237.994 166.314 218.097 190.611 218.097Z" fill="black"/>
<path fill-rule="evenodd" clip-rule="evenodd" d="M90.8871 422.32C89.9561 410.852 95.079 369.953 110.916 339.418C170.065 306.715 244.278 322.288 273.621 339.418C283.557 349.495 290.74 416.433 288.567 421.238" fill="#F16A46"/>
<path d="M125.03 421.251C125.961 413.811 127.436 401.821 129.842 390.717" stroke="#FFC56D" stroke-width="5.73" stroke-linecap="round" stroke-linejoin="round"/>
<path d="M256.215 421.251C255.284 413.811 253.809 401.821 251.403 390.717" stroke="#FFC56D" stroke-width="5.73" stroke-linecap="round" stroke-linejoin="round"/>
<path fill-rule="evenodd" clip-rule="evenodd" d="M153.068 271.2C153.067 269.901 153.452 268.631 154.174 267.551C154.896 266.47 155.923 265.627 157.124 265.129C158.326 264.631 159.648 264.499 160.925 264.751C162.201 265.003 163.374 265.627 164.295 266.544C165.216 267.462 165.845 268.631 166.1 269.904C166.356 271.178 166.228 272.499 165.732 273.7C165.236 274.9 164.395 275.928 163.315 276.651C162.234 277.375 160.963 277.763 159.662 277.765C158.797 277.767 157.94 277.599 157.141 277.27C156.341 276.941 155.614 276.457 155.002 275.848C154.39 275.238 153.904 274.514 153.572 273.716C153.24 272.919 153.069 272.064 153.068 271.2Z" fill="#D18C65"/>
<path fill-rule="evenodd" clip-rule="evenodd" d="M213.41 271.2C213.409 269.901 213.794 268.63 214.517 267.549C215.239 266.468 216.267 265.626 217.469 265.128C218.671 264.63 219.995 264.499 221.271 264.752C222.548 265.005 223.721 265.63 224.642 266.549C225.562 267.468 226.19 268.638 226.444 269.913C226.698 271.187 226.568 272.508 226.07 273.709C225.572 274.91 224.729 275.936 223.647 276.658C222.564 277.38 221.292 277.765 219.99 277.765C218.246 277.765 216.573 277.074 215.339 275.843C214.105 274.612 213.411 272.942 213.41 271.2Z" fill="#D18C65"/>
<path fill-rule="evenodd" clip-rule="evenodd" d="M216.815 158.114C210.176 152.941 208.539 158.721 207.5 162.156C206.461 165.591 206.538 171.648 211.742 171.518C216.302 175.604 220.548 170.319 221.853 167.634C223.157 164.949 226.359 159.12 216.815 158.114Z" fill="#FF8364"/>
<path d="M221.205 154.428C218.915 155.231 217.629 156.327 216.9 158.231" stroke="#FFD98E" stroke-width="2.83" stroke-linecap="round" stroke-linejoin="round"/>
<path fill-rule="evenodd" clip-rule="evenodd" d="M173.524 188.784C173.523 187.262 173.974 185.774 174.82 184.508C175.666 183.243 176.868 182.255 178.276 181.672C179.683 181.088 181.233 180.934 182.728 181.229C184.223 181.524 185.597 182.255 186.677 183.329C187.756 184.403 188.492 185.773 188.792 187.265C189.092 188.757 188.942 190.304 188.361 191.711C187.781 193.118 186.795 194.322 185.53 195.17C184.264 196.018 182.775 196.472 181.251 196.476C180.238 196.479 179.233 196.282 178.296 195.897C177.359 195.511 176.507 194.945 175.789 194.231C175.071 193.516 174.501 192.667 174.113 191.733C173.724 190.798 173.524 189.796 173.524 188.784Z" fill="#6BD5E1"/>
<path fill-rule="evenodd" clip-rule="evenodd" d="M120.14 192.179L141.491 186.768L150.14 220.796L128.794 226.207L120.14 192.179Z" fill="#DFDFDF"/>
<path fill-rule="evenodd" clip-rule="evenodd" d="M124.638 195.928L139.328 192.205L140.461 196.664L125.772 200.387L124.638 195.928Z" fill="#FF8364"/>
<path d="M127.004 205.232L141.694 201.505" stroke="#6BD5E1" stroke-width="3.11" stroke-linecap="round" stroke-linejoin="round"/>
<path d="M128.236 210.073L142.93 206.332" stroke="#6BD5E1" stroke-width="3.11" stroke-linecap="round" stroke-linejoin="round"/>
<path d="M129.527 215.12L144.23 211.393" stroke="#6BD5E1" stroke-width="3.11" stroke-linecap="round" stroke-linejoin="round"/>
<path d="M130.76 220.001L136.526 218.542" stroke="#6BD5E1" stroke-width="3.11" stroke-linecap="round" stroke-linejoin="round"/>
<path d="M143.151 216.858L145.463 216.274" stroke="#6BD5E1" stroke-width="3.11" stroke-linecap="round" stroke-linejoin="round"/>
<path fill-rule="evenodd" clip-rule="evenodd" d="M105.986 114.921L161.236 88.6524L178.503 124.854L123.253 151.1L105.986 114.921Z" fill="#DFDFDF"/>
<path d="M125.093 143.112L130.589 127.054L140.83 128.958L144.851 109.151L154.746 110.795L157.625 96.825" stroke="#FF8364" stroke-width="3.11" stroke-linecap="round" stroke-linejoin="round"/>
<path fill-rule="evenodd" clip-rule="evenodd" d="M128.65 128.105C128.408 127.597 128.322 127.028 128.403 126.471C128.485 125.914 128.73 125.393 129.108 124.975C129.485 124.557 129.979 124.26 130.525 124.122C131.072 123.984 131.648 124.01 132.179 124.199C132.711 124.387 133.174 124.729 133.511 125.18C133.848 125.631 134.044 126.173 134.073 126.735C134.102 127.297 133.963 127.855 133.675 128.339C133.386 128.823 132.96 129.21 132.451 129.452C131.768 129.775 130.984 129.815 130.272 129.563C129.559 129.31 128.976 128.786 128.65 128.105Z" fill="#FFD98E"/>
<path fill-rule="evenodd" clip-rule="evenodd" d="M142.413 110.848C142.171 110.34 142.085 109.771 142.166 109.214C142.248 108.657 142.493 108.136 142.871 107.718C143.248 107.3 143.742 107.003 144.288 106.865C144.835 106.727 145.411 106.754 145.942 106.942C146.474 107.131 146.937 107.472 147.274 107.924C147.611 108.375 147.807 108.916 147.836 109.478C147.865 110.041 147.726 110.599 147.438 111.083C147.149 111.566 146.723 111.954 146.214 112.196C145.876 112.357 145.509 112.45 145.135 112.47C144.761 112.489 144.386 112.435 144.033 112.31C143.68 112.185 143.355 111.991 143.077 111.74C142.799 111.49 142.574 111.186 142.413 110.848Z" fill="#FFD98E"/>
<path fill-rule="evenodd" clip-rule="evenodd" d="M247.071 141.374C247.068 139.445 247.638 137.559 248.709 135.954C249.78 134.349 251.304 133.097 253.088 132.357C254.872 131.617 256.836 131.423 258.731 131.798C260.626 132.174 262.367 133.102 263.733 134.466C265.099 135.83 266.029 137.568 266.405 139.46C266.781 141.351 266.586 143.312 265.845 145.093C265.104 146.875 263.85 148.396 262.243 149.466C260.635 150.535 258.745 151.104 256.813 151.1C254.231 151.096 251.756 150.069 249.93 148.246C248.104 146.423 247.076 143.952 247.071 141.374Z" fill="#FFD98E"/>
<path d="M273.307 139.677C273.59 140.67 273.732 141.698 273.729 142.73C273.73 144.387 273.363 146.024 272.653 147.522C271.944 149.02 270.911 150.343 269.628 151.394C268.345 152.445 266.845 153.2 265.234 153.602C263.624 154.005 261.945 154.046 260.317 153.723" stroke="#FF8364" stroke-width="3.11" stroke-linecap="round" stroke-linejoin="round"/>
<path fill-rule="evenodd" clip-rule="evenodd" d="M250.912 148.774L247.17 155.46L262.62 157.944L260.929 150.135" fill="#FFD98E"/>
<path fill-rule="evenodd" clip-rule="evenodd" d="M254.529 141.374C254.529 140.919 254.664 140.475 254.917 140.097C255.17 139.719 255.529 139.424 255.95 139.25C256.371 139.076 256.834 139.031 257.281 139.119C257.727 139.208 258.138 139.427 258.46 139.748C258.782 140.07 259.001 140.48 259.09 140.926C259.179 141.372 259.133 141.834 258.959 142.254C258.785 142.674 258.489 143.033 258.111 143.286C257.732 143.538 257.287 143.673 256.831 143.673C256.221 143.673 255.635 143.431 255.203 143C254.771 142.569 254.529 141.984 254.529 141.374Z" fill="#1B3C87"/>
<path fill-rule="evenodd" clip-rule="evenodd" d="M270.383 139.075C270.383 138.62 270.518 138.176 270.771 137.798C271.024 137.42 271.384 137.125 271.805 136.951C272.225 136.777 272.688 136.731 273.135 136.82C273.582 136.909 273.992 137.128 274.314 137.449C274.636 137.771 274.856 138.181 274.944 138.626C275.033 139.072 274.988 139.535 274.813 139.955C274.639 140.375 274.344 140.734 273.965 140.987C273.587 141.239 273.141 141.374 272.686 141.374C272.075 141.374 271.489 141.132 271.058 140.701C270.626 140.27 270.383 139.685 270.383 139.075Z" fill="#FFD98E"/>
<path fill-rule="evenodd" clip-rule="evenodd" d="M85.409 68.1223L99.8422 72.02L85.6294 124.558L71.1826 120.664L85.409 68.1223Z" fill="#FF8364"/>
<path d="M75.7837 103.718L83.7312 105.86" stroke="#FFD98E" stroke-width="4.23" stroke-linecap="round" stroke-linejoin="round"/>
<path d="M73.2605 113.035L81.2125 115.177" stroke="#FFD98E" stroke-width="4.23" stroke-linecap="round" stroke-linejoin="round"/>
<path d="M78.3025 94.4001L86.2545 96.542" stroke="#FFD98E" stroke-width="4.23" stroke-linecap="round" stroke-linejoin="round"/>
<path d="M80.8257 85.0915L88.7732 87.2334" stroke="#FFD98E" stroke-width="4.23" stroke-linecap="round" stroke-linejoin="round"/>
<path d="M83.3445 75.7605L91.2965 77.9069" stroke="#FFD98E" stroke-width="4.23" stroke-linecap="round" stroke-linejoin="round"/>
<path fill-rule="evenodd" clip-rule="evenodd" d="M234.068 57.2511L288.567 70.3675L279.572 107.463L225.095 94.3238L234.068 57.2511Z" fill="#DFDFDF"/>
<path fill-rule="evenodd" clip-rule="evenodd" d="M266.663 97.4491C266.936 96.3216 267.537 95.3001 268.391 94.5139C269.246 93.7276 270.314 93.2119 271.462 93.0319C272.61 92.8519 273.785 93.0158 274.839 93.5027C275.894 93.9896 276.78 94.7778 277.386 95.7676C277.991 96.7573 278.29 97.9042 278.243 99.0631C278.195 100.222 277.805 101.341 277.121 102.278C276.437 103.216 275.49 103.93 274.399 104.33C273.309 104.73 272.124 104.798 270.995 104.526C269.48 104.161 268.173 103.21 267.361 101.883C266.549 100.556 266.298 98.961 266.663 97.4491Z" fill="#FF8364"/>
<path fill-rule="evenodd" clip-rule="evenodd" d="M268.399 102.281L264.482 112.483L269.951 111.244L273.464 114.499L274.17 103.385" fill="#FF8364"/>
<path d="M237.289 66.856L280.314 77.2288" stroke="#6BD5E1" stroke-width="3.11" stroke-linecap="round" stroke-linejoin="round"/>
<path d="M234.797 77.0358L260.78 83.2954" stroke="#6BD5E1" stroke-width="3.11" stroke-linecap="round" stroke-linejoin="round"/>
<path fill-rule="evenodd" clip-rule="evenodd" d="M147.581 62.2893L141.734 55.9669L150.145 54.0674L158.56 52.168L155.996 60.3944L153.437 68.6208L147.581 62.2893Z" fill="#6BD5E1"/>
<path fill-rule="evenodd" clip-rule="evenodd" d="M263.753 194.936L255.743 198.137L256.971 189.605L258.199 181.074L264.977 186.395L271.759 191.716L263.753 194.936Z" fill="#FFD98E"/>
<path d="M198.001 92.1684C198.001 91.3425 198.246 90.5351 198.706 89.8483C199.166 89.1616 199.819 88.6263 200.583 88.3102C201.347 87.9941 202.189 87.9114 203 88.0726C203.811 88.2337 204.557 88.6315 205.142 89.2155C205.727 89.7995 206.125 90.5436 206.286 91.3537C206.448 92.1638 206.365 93.0034 206.048 93.7665C205.732 94.5296 205.196 95.1818 204.508 95.6407C203.82 96.0996 203.011 96.3445 202.184 96.3445C201.075 96.3445 200.011 95.9045 199.226 95.1213C198.442 94.3382 198.001 93.276 198.001 92.1684Z" stroke="#FF8364" stroke-width="3.11" stroke-linecap="round" stroke-linejoin="round"/>
<path fill-rule="evenodd" clip-rule="evenodd" d="M81.1316 162.12C81.1316 161.294 81.3769 160.486 81.8365 159.8C82.2962 159.113 82.9494 158.578 83.7138 158.262C84.4781 157.946 85.3191 157.863 86.1305 158.024C86.9419 158.185 87.6873 158.583 88.2722 159.167C88.8572 159.751 89.2556 160.495 89.417 161.305C89.5784 162.115 89.4956 162.955 89.179 163.718C88.8624 164.481 88.3263 165.133 87.6384 165.592C86.9505 166.051 86.1418 166.296 85.3145 166.296C84.2051 166.296 83.1412 165.856 82.3567 165.073C81.5723 164.29 81.1316 163.227 81.1316 162.12Z" fill="#FFD98E"/>
<path fill-rule="evenodd" clip-rule="evenodd" d="M175.769 295.911H203.74C203.74 295.911 203.87 324.762 203.74 336.118C203.74 340.802 175.778 340.263 175.778 336.118L175.769 295.911Z" fill="#D18C65"/>
<path fill-rule="evenodd" clip-rule="evenodd" d="M161.461 268.331C161.461 246.898 174.505 229.53 190.62 229.53C206.735 229.53 219.783 246.898 219.783 268.331C219.783 289.764 206.74 307.133 190.62 307.133C174.5 307.133 161.461 289.759 161.461 268.331Z" fill="#E49D75"/>
<path fill-rule="evenodd" clip-rule="evenodd" d="M206.367 226.746C198.959 243.93 168.266 260.711 155.34 264.635C153.298 254.379 166.526 210.67 206.367 226.746Z" fill="black"/>
<path fill-rule="evenodd" clip-rule="evenodd" d="M189.963 226.216C184.355 228.335 202.589 257.464 224.43 264.635C233.358 251.955 212.794 225.614 189.963 226.216Z" fill="black"/>
<path fill-rule="evenodd" clip-rule="evenodd" d="M231.657 31.1529C231.656 29.6301 232.106 28.141 232.953 26.8741C233.799 25.6071 235.002 24.6192 236.411 24.0354C237.82 23.4517 239.371 23.2982 240.867 23.5945C242.363 23.8909 243.737 24.6236 244.816 25.7001C245.895 26.7766 246.63 28.1484 246.927 29.6419C247.225 31.1354 247.072 32.6835 246.488 34.0903C245.905 35.4971 244.916 36.6994 243.647 37.5449C242.379 38.3905 240.887 38.8414 239.362 38.8405C237.319 38.8405 235.36 38.0307 233.916 36.5891C232.471 35.1476 231.659 33.1922 231.657 31.1529Z" fill="#FFD98E"/>
<path d="M98.7717 233.409C98.7717 231.988 99.1938 230.599 99.9845 229.418C100.775 228.236 101.899 227.315 103.214 226.772C104.529 226.228 105.976 226.085 107.372 226.363C108.768 226.64 110.05 227.324 111.057 228.329C112.063 229.334 112.749 230.614 113.026 232.008C113.304 233.401 113.161 234.846 112.617 236.159C112.072 237.472 111.15 238.594 109.966 239.383C108.783 240.172 107.391 240.594 105.968 240.594C104.06 240.594 102.229 239.837 100.88 238.49C99.5299 237.142 98.7717 235.315 98.7717 233.409Z" stroke="#6BD5E1" stroke-width="3.11" stroke-linecap="round" stroke-linejoin="round"/>
<path d="M258.221 230.383C258.22 229.556 258.465 228.747 258.925 228.059C259.384 227.371 260.038 226.834 260.803 226.517C261.568 226.2 262.41 226.117 263.223 226.277C264.035 226.438 264.782 226.836 265.368 227.421C265.954 228.005 266.353 228.75 266.515 229.561C266.677 230.372 266.594 231.213 266.278 231.977C265.961 232.741 265.424 233.394 264.735 233.854C264.047 234.314 263.237 234.559 262.409 234.559C261.859 234.559 261.314 234.452 260.806 234.242C260.298 234.033 259.837 233.725 259.448 233.337C259.059 232.949 258.751 232.489 258.54 231.982C258.33 231.475 258.221 230.932 258.221 230.383V230.383Z" stroke="#FF8364" stroke-width="3.11" stroke-linecap="round" stroke-linejoin="round"/>
</svg>
