<svg width="781" height="586" viewBox="0 0 781 586" fill="none" xmlns="http://www.w3.org/2000/svg">
<path d="M74.5946 185.697C84.3415 177.754 97.5381 176.603 109.585 178.795C122.453 181.095 134.171 187.286 146.054 192.49C158.319 197.913 170.804 201.803 184.275 202.46C197.69 203.172 211.106 201.255 224.138 197.968C251.353 191.12 276.322 177.973 302.442 168.057C315.529 163.072 329.054 158.745 342.963 156.773C350.519 155.677 358.131 155.403 365.742 156.225C372.97 156.992 380.034 158.69 387.097 160.443C402.703 164.332 418.255 167.729 434.244 169.646C450.726 171.618 467.372 172.276 483.964 171.728C485.004 171.673 485.004 170.03 483.964 170.084C453.847 171.18 423.73 167.948 394.49 160.662C380.527 157.156 366.673 153.54 352.162 154.253C338.089 154.965 324.181 158.69 310.929 163.237C284.372 172.385 259.402 185.807 232.461 193.969C218.772 198.078 204.59 200.926 190.243 200.981C175.678 201.036 161.988 197.639 148.682 191.832C135.54 186.135 122.672 179.068 108.38 176.877C96.2239 175.015 83.2463 176.494 73.4447 184.492C72.6233 185.204 73.7732 186.409 74.5946 185.697Z" fill="#E8E8E8"/>
<path d="M369.52 135.627C407.467 152.006 450.562 149.267 489.385 137.38C510.412 130.916 531.329 122.26 553.725 122.315C576.286 122.37 597.696 130.258 619.763 133.764C639.805 136.942 661.872 136.558 679.066 124.506C679.942 123.904 679.121 122.479 678.245 123.082C662.365 134.203 642.214 135.189 623.596 132.669C602.515 129.82 582.254 122.479 560.953 120.946C539.653 119.412 519.557 125.821 499.57 132.395C479.638 138.914 459.487 144.008 438.515 145.214C415.298 146.583 391.807 143.461 370.396 134.203C369.411 133.764 368.589 135.189 369.52 135.627Z" fill="#E8E8E8"/>
<path d="M53.6774 272.196C65.6693 263.65 79.8516 258.391 94.5267 256.967C101.864 256.255 109.257 256.529 116.485 257.789C123.986 259.104 131.214 261.624 138.388 264.144C151.694 268.745 164.89 272.251 178.908 269.019C191.01 266.225 201.962 259.925 212.694 253.954C225.343 246.887 238.485 239.656 253.16 238.342C254.2 238.232 254.2 236.589 253.16 236.698C226.986 239.054 207.328 258.72 182.906 266.225C176.718 268.143 170.257 269.129 163.795 268.745C155.855 268.252 148.135 265.787 140.688 263.212C133.186 260.638 125.684 257.844 117.799 256.365C111.009 255.105 104.055 254.721 97.2098 255.159C81.3301 256.145 65.8336 261.569 52.856 270.827C51.9799 271.375 52.8012 272.799 53.6774 272.196Z" fill="#E8E8E8"/>
<path d="M198.841 293.232C220.142 270.717 251.463 261.514 281.744 261.24C299.321 261.076 316.844 263.596 333.983 267.266C350.301 270.717 366.126 275.209 382.991 272.963C400.623 270.608 417.105 263.048 432.876 255.105C433.807 254.612 432.985 253.187 432.054 253.68C417.051 261.24 401.445 268.416 384.744 271.046C376.201 272.361 367.604 272.251 359.062 270.882C350.41 269.512 341.978 267.211 333.381 265.404C302.059 258.83 268.712 256.036 237.938 266.718C222.77 271.977 208.752 280.359 197.691 292.027C196.979 292.849 198.129 293.999 198.841 293.232Z" fill="#E8E8E8"/>
<path d="M452.643 309.611C461.568 312.734 470.713 309.831 478.872 305.941C488.016 301.559 496.613 296.135 505.977 292.246C515.34 288.356 525.416 285.727 535.601 286.987C544.91 288.137 553.506 292.301 561.665 296.738C569.386 300.956 576.998 305.558 585.211 308.79C594.356 312.35 604.212 314.049 614.014 313.83C634.11 313.391 651.194 303.366 669.538 296.573C686.677 290.219 709.511 287.37 723.256 302.271C723.968 303.038 725.118 301.887 724.406 301.12C713.618 289.452 696.424 288.137 681.64 291.26C662.365 295.314 645.719 307.091 626.334 310.871C615.985 312.898 605.143 312.624 594.903 310.159C585.376 307.858 576.833 303.366 568.291 298.6C560.57 294.273 552.74 289.781 544.252 287.206C535.436 284.522 526.237 284.467 517.312 286.658C506.415 289.342 496.394 294.656 486.592 300.025C476.462 305.503 464.744 312.186 452.971 308.078C452.095 307.694 451.657 309.283 452.643 309.611Z" fill="#E8E8E8"/>
<path d="M596.82 336.016C619.49 337.386 638.163 321.992 659.573 317.336C665.268 316.076 671.291 315.528 677.095 316.514C682.297 317.391 687.007 319.527 691.497 322.266C699.218 326.977 706.719 333.058 716.138 333.715C727.582 334.482 737.712 327.361 746.254 320.677C747.076 320.02 745.926 318.87 745.105 319.527C736.781 325.991 726.816 333.058 715.645 332.017C705.953 331.141 698.287 324.129 690.128 319.582C671.346 309.064 651.25 317.336 633.234 325.279C621.681 330.319 609.689 335.194 596.875 334.427C595.78 334.318 595.78 335.961 596.82 336.016Z" fill="#E8E8E8"/>
<path d="M79.9613 440.758C87.9012 433.198 99.6741 430.24 110.242 433.143C121.303 436.156 128.422 445.688 137.293 452.262C154.98 465.355 179.073 463.273 198.512 455.549C221.456 446.455 240.566 430.021 263.455 420.763C274.625 416.216 286.727 413.313 298.883 414.134C310.711 414.956 320.786 420.051 330.15 426.953C339.459 433.801 348.22 441.909 359.117 446.236C370.78 450.838 383.922 449.852 394.873 443.771C395.804 443.278 394.983 441.854 394.052 442.347C382.882 448.537 369.521 449.085 357.857 443.935C348.11 439.608 340.116 432.377 331.628 426.022C322.922 419.503 313.668 414.408 302.716 412.874C291.436 411.341 279.937 413.258 269.259 416.819C245.877 424.652 226.603 440.813 204.426 451.167C183.946 460.753 157.608 465.245 138.169 450.838C128.477 443.661 120.865 433.417 108.381 431.007C97.8124 428.98 86.587 432.157 78.8114 439.608C78.0448 440.32 79.1947 441.525 79.9613 440.758Z" fill="#E8E8E8"/>
<path d="M290.341 471.326C299.376 465.464 310.109 462.67 320.896 463.547C330.752 464.369 340.061 468.039 349.096 471.709C357.857 475.27 366.728 478.995 376.146 480.529C386.003 482.118 395.969 480.913 405.442 478.009C416.777 474.503 427.29 468.915 437.639 463.273C438.57 462.78 437.749 461.356 436.818 461.849C417.872 472.093 397.064 482.885 374.832 478.612C356.269 475.051 339.952 463.547 320.841 461.903C309.78 460.972 298.719 463.875 289.465 469.901C288.643 470.504 289.465 471.928 290.341 471.326Z" fill="#E8E8E8"/>
<path d="M497.051 508.467C508.988 497.292 523.663 489.239 539.488 485.131C547.538 483.049 555.806 482.008 564.13 482.063C573.384 482.172 582.583 483.652 591.782 484.528C609.633 486.226 626.772 483.213 643.474 476.694C659.408 470.504 674.412 459.767 691.551 457.137C711.592 454.07 727.089 467.382 739.847 481.022C740.559 481.789 741.709 480.639 740.997 479.872C730.484 468.641 718.109 457.028 702.119 455.22C684.597 453.248 668.662 463.547 653.44 470.614C635.917 478.776 617.026 484.364 597.587 483.268C587.894 482.72 578.312 480.967 568.565 480.474C560.296 480.036 551.973 480.639 543.869 482.337C525.963 486.007 509.262 494.663 495.901 507.207C495.135 508.029 496.285 509.18 497.051 508.467Z" fill="#E8E8E8"/>
<path d="M176.445 162.305C191.777 174.193 211.763 168.934 228.465 163.456C249.163 156.608 270.135 152.28 292.038 151.842C293.079 151.842 293.079 150.199 292.038 150.199C271.888 150.582 252.01 154.033 232.845 160.279C215.487 165.921 193.912 173.864 177.595 161.155C176.773 160.498 175.623 161.648 176.445 162.305Z" fill="#161616"/>
<path d="M324.071 62.7129C342.579 61.3433 360.43 56.1939 378.336 51.8662C396.954 47.3194 415.626 44.3064 434.846 46.3881C454.231 48.4698 473.013 54.3314 492.014 58.4947C510.303 62.5485 528.866 64.4111 547.593 63.4798C568.674 62.439 589.482 58.0017 609.14 50.4419C610.126 50.0584 609.688 48.4698 608.702 48.8532C572.946 62.6033 533.903 65.5067 496.449 57.7278C477.776 53.8383 459.487 48.1411 440.596 45.402C422.362 42.7725 404.565 44.2516 386.605 48.1959C365.797 52.7427 345.372 59.426 324.071 61.0147C323.031 61.179 323.031 62.8224 324.071 62.7129Z" fill="#161616"/>
<path d="M620.421 199.995C636.41 194.078 653.002 202.515 668.991 204.049C677.588 204.87 686.131 204.049 694.508 202.076C702.722 200.104 710.717 197.201 719.095 195.941C728.075 194.571 737.658 195.119 745.433 200.214C746.309 200.816 747.131 199.392 746.255 198.79C732.456 189.805 715.59 194.626 701.025 198.68C691.88 201.255 682.736 203.117 673.208 202.734C664.118 202.405 655.411 199.885 646.541 198.023C637.725 196.215 628.635 195.229 620.038 198.406C618.997 198.735 619.436 200.323 620.421 199.995Z" fill="#161616"/>
<path d="M62.2742 366.2C76.1827 353.82 95.786 364.776 111.228 367.132C129.079 369.871 146.93 364.94 163.96 360.174C165 359.901 164.562 358.312 163.521 358.586C144.685 363.845 125.191 369.049 105.642 364.393C91.3506 360.996 73.8828 353.765 61.0695 365.05C60.3029 365.707 61.4528 366.858 62.2742 366.2Z" fill="#161616"/>
<path d="M237.39 520.027C241.825 514.768 248.67 511.919 255.57 512.795C259.512 513.288 263.126 515.096 266.74 516.685C269.752 518 272.818 519.095 275.939 519.972C289.355 523.697 303.756 523.149 316.843 518.547C317.829 518.219 317.391 516.63 316.405 516.959C301.73 522.053 285.522 522.053 270.902 516.575C264.55 514.22 258.636 510.44 251.572 510.988C245.604 511.426 240.073 514.275 236.185 518.821C235.528 519.698 236.733 520.848 237.39 520.027Z" fill="#161616"/>
<path d="M330.587 515.534C340.553 512.631 350.793 511.206 361.197 511.261C362.237 511.261 362.237 509.618 361.197 509.618C350.684 509.563 340.28 511.042 330.149 513.945C329.164 514.274 329.547 515.863 330.587 515.534Z" fill="#161616"/>
<path d="M343.62 89.7198C353.312 97.17 362.566 105.168 371.437 113.659C372.203 114.371 373.353 113.221 372.586 112.509C363.661 103.963 354.243 95.91 344.441 88.3502C343.62 87.6381 342.798 89.0624 343.62 89.7198Z" fill="#161616"/>
<path d="M248.67 118.59C249.601 113.44 250.587 108.291 251.518 103.087C251.737 102.046 250.149 101.608 249.93 102.648C248.999 107.798 248.013 112.947 247.082 118.151C246.918 119.192 248.506 119.631 248.67 118.59Z" fill="#161616"/>
<path d="M564.404 151.239C566.158 151.239 567.58 149.817 567.58 148.062C567.58 146.307 566.158 144.885 564.404 144.885C562.649 144.885 561.228 146.307 561.228 148.062C561.228 149.817 562.649 151.239 564.404 151.239Z" fill="#EC615B"/>
<path d="M149.449 413.641C151.536 413.641 153.228 411.948 153.228 409.861C153.228 407.773 151.536 406.081 149.449 406.081C147.362 406.081 145.671 407.773 145.671 409.861C145.671 411.948 147.362 413.641 149.449 413.641Z" fill="#EC615B"/>
<path d="M131.16 71.2034C135.938 71.2034 139.811 67.3283 139.811 62.548C139.811 57.7677 135.938 53.8926 131.16 53.8926C126.381 53.8926 122.508 57.7677 122.508 62.548C122.508 67.3283 126.381 71.2034 131.16 71.2034Z" fill="#EC615B"/>
<path d="M148.518 79.5851C150.121 79.5851 151.421 78.2852 151.421 76.6817C151.421 75.0782 150.121 73.7783 148.518 73.7783C146.916 73.7783 145.616 75.0782 145.616 76.6817C145.616 78.2852 146.916 79.5851 148.518 79.5851Z" fill="#EC615B"/>
<path d="M314.325 566.864C317.893 566.864 320.786 563.97 320.786 560.4C320.786 556.83 317.893 553.936 314.325 553.936C310.756 553.936 307.863 556.83 307.863 560.4C307.863 563.97 310.756 566.864 314.325 566.864Z" fill="#EC615B"/>
<path d="M614.617 82.4887C617.762 82.4887 620.312 79.938 620.312 76.7915C620.312 73.645 617.762 71.0942 614.617 71.0942C611.472 71.0942 608.922 73.645 608.922 76.7915C608.922 79.938 611.472 82.4887 614.617 82.4887Z" fill="#EC615B"/>
<path d="M621.899 69.9441C623.835 69.9441 625.404 68.3744 625.404 66.4381C625.404 64.5018 623.835 62.9321 621.899 62.9321C619.964 62.9321 618.395 64.5018 618.395 66.4381C618.395 68.3744 619.964 69.9441 621.899 69.9441Z" fill="#EC615B"/>
<path d="M139.867 62.1102C144.645 62.1102 148.518 58.235 148.518 53.4547C148.518 48.6745 144.645 44.7993 139.867 44.7993C135.088 44.7993 131.215 48.6745 131.215 53.4547C131.215 58.235 135.088 62.1102 139.867 62.1102Z" fill="#5222D0"/>
<path d="M135.541 418.736C137.93 418.736 139.867 416.798 139.867 414.408C139.867 412.018 137.93 410.08 135.541 410.08C133.152 410.08 131.215 412.018 131.215 414.408C131.215 416.798 133.152 418.736 135.541 418.736Z" fill="#5222D0"/>
<path d="M287.603 554.319C289.72 554.319 291.436 552.602 291.436 550.484C291.436 548.366 289.72 546.65 287.603 546.65C285.486 546.65 283.77 548.366 283.77 550.484C283.77 552.602 285.486 554.319 287.603 554.319Z" fill="#5222D0"/>
<path d="M593.59 62.932C598.61 62.932 602.68 58.8606 602.68 53.8383C602.68 48.816 598.61 44.7446 593.59 44.7446C588.57 44.7446 584.5 48.816 584.5 53.8383C584.5 58.8606 588.57 62.932 593.59 62.932Z" fill="#5222D0"/>
<path d="M443.936 200.651C445.025 200.651 445.907 199.768 445.907 198.679C445.907 197.59 445.025 196.707 443.936 196.707C442.847 196.707 441.965 197.59 441.965 198.679C441.965 199.768 442.847 200.651 443.936 200.651Z" fill="#5222D0"/>
<path d="M423.731 83.2555C422.581 85.9398 421.486 88.6789 420.336 91.3631C419.952 92.3492 421.54 92.7874 421.924 91.8014C423.074 89.1171 424.169 86.378 425.319 83.6938C425.702 82.7077 424.114 82.2695 423.731 83.2555Z" fill="#5222D0"/>
<path d="M423.457 84.5703C425.483 86.7068 427.071 89.1172 428.112 91.8562C428.495 92.8423 430.083 92.404 429.7 91.418C428.495 88.405 426.797 85.7755 424.607 83.4199C423.895 82.653 422.69 83.8034 423.457 84.5703Z" fill="#5222D0"/>
<path d="M420.774 92.7875C422.362 95.7457 424.169 98.5396 426.195 101.169C426.852 101.991 428.276 101.169 427.619 100.347C425.593 97.6631 423.786 94.8692 422.198 91.9658C421.65 91.0345 420.281 91.8563 420.774 92.7875Z" fill="#5222D0"/>
<path d="M428.221 91.9655C427.564 95.0332 426.962 98.101 426.305 101.169C426.086 102.21 427.674 102.648 427.893 101.607C428.55 98.5392 429.152 95.4715 429.809 92.4037C430.028 91.4177 428.44 90.9794 428.221 91.9655Z" fill="#5222D0"/>
<path d="M577.984 317.774C576.67 320.184 575.794 322.759 575.41 325.498C575.246 326.539 576.834 326.977 576.998 325.936C577.382 323.361 578.148 320.951 579.408 318.65C579.901 317.664 578.477 316.842 577.984 317.774Z" fill="#5222D0"/>
<path d="M577.874 318.267C578.969 321.17 580.228 323.964 581.652 326.649C582.145 327.58 583.569 326.758 583.076 325.827C581.707 323.252 580.502 320.568 579.462 317.829C579.078 316.843 577.49 317.281 577.874 318.267Z" fill="#5222D0"/>
<path d="M575.081 326.649C576.505 328.676 577.874 330.702 579.298 332.729C579.9 333.606 581.324 332.784 580.721 331.908C579.298 329.881 577.929 327.854 576.505 325.827C575.902 324.95 574.479 325.772 575.081 326.649Z" fill="#5222D0"/>
<path d="M581.05 326.375C579.9 327.963 579.353 329.771 579.353 331.688C579.353 332.729 580.995 332.729 580.995 331.688C580.995 330.045 581.488 328.511 582.474 327.196C583.076 326.32 581.652 325.498 581.05 326.375Z" fill="#5222D0"/>
<path d="M119.934 472.86C118.456 476.092 116.977 479.269 115.499 482.501C115.061 483.433 116.484 484.309 116.922 483.323C118.401 480.091 119.879 476.914 121.358 473.682C121.796 472.75 120.427 471.929 119.934 472.86Z" fill="#5222D0"/>
<path d="M120.209 473.297C121.632 476.694 123.056 480.09 124.48 483.487C124.863 484.473 126.451 484.034 126.068 483.048C124.644 479.652 123.22 476.255 121.797 472.859C121.413 471.873 119.825 472.311 120.209 473.297Z" fill="#5222D0"/>
<path d="M115.116 483.981C116.594 486.884 118.018 489.842 119.497 492.745C119.77 493.238 120.428 493.238 120.811 492.91C121.961 491.978 122.508 490.39 123.111 489.13C123.987 487.377 124.863 485.624 125.739 483.871C126.232 482.94 124.808 482.118 124.315 483.049C123.549 484.583 122.727 486.117 121.961 487.651C121.304 488.966 120.701 490.773 119.551 491.705C119.989 491.759 120.428 491.814 120.866 491.869C119.387 488.966 117.963 486.007 116.485 483.104C116.047 482.228 114.623 483.049 115.116 483.981Z" fill="#5222D0"/>
<path d="M671.072 218.237C669.375 221.469 668.334 224.865 667.842 228.481C667.677 229.522 669.32 229.522 669.484 228.481C669.922 225.139 670.908 222.017 672.441 219.059C672.989 218.127 671.565 217.306 671.072 218.237Z" fill="#5222D0"/>
<path d="M670.853 220.154C672.551 223.441 674.193 226.728 675.891 230.014C676.384 230.946 677.808 230.124 677.315 229.193C675.617 225.906 673.974 222.619 672.277 219.332C671.784 218.401 670.36 219.222 670.853 220.154Z" fill="#5222D0"/>
<path d="M667.951 228.7C669.32 231.986 670.963 235.054 672.934 237.958C673.536 238.834 674.96 238.012 674.358 237.136C672.441 234.342 670.798 231.384 669.539 228.261C669.156 227.33 667.568 227.768 667.951 228.7Z" fill="#5222D0"/>
<path d="M675.398 229.412C674.412 232.48 673.591 235.602 673.043 238.834C672.879 239.875 674.467 240.313 674.631 239.272C675.179 236.095 675.945 232.973 676.986 229.85C677.314 228.864 675.726 228.426 675.398 229.412Z" fill="#5222D0"/>
<path d="M664.72 484.199C664.062 486.39 663.46 488.527 662.803 490.718C662.529 491.759 664.062 492.142 664.391 491.156C665.048 488.965 665.65 486.829 666.307 484.637C666.636 483.597 665.048 483.158 664.72 484.199Z" fill="#5222D0"/>
<path d="M664.61 485.404C665.596 487.595 666.636 489.787 667.622 491.923C668.06 492.909 669.484 492.033 669.046 491.101C668.06 488.91 667.02 486.719 666.034 484.582C665.596 483.596 664.172 484.418 664.61 485.404Z" fill="#5222D0"/>
<path d="M663.241 491.759C663.734 494.334 664.939 496.635 666.636 498.607C667.348 499.429 668.498 498.223 667.786 497.456C666.253 495.703 665.267 493.622 664.829 491.376C664.61 490.28 663.022 490.718 663.241 491.759Z" fill="#5222D0"/>
<path d="M667.568 491.54C666.856 493.841 666.527 496.196 666.582 498.552C666.637 499.592 668.28 499.592 668.225 498.552C668.17 496.306 668.444 494.114 669.156 491.978C669.484 490.992 667.896 490.554 667.568 491.54Z" fill="#5222D0"/>
<path d="M99.2904 195.174C98.0857 197.803 96.9358 200.433 95.7311 203.062C95.2931 203.993 96.7168 204.87 97.1548 203.884C98.3595 201.254 99.5094 198.625 100.714 195.995C101.152 195.064 99.7285 194.188 99.2904 195.174Z" fill="#5222D0"/>
<path d="M95.9508 204.432C97.2103 207.664 98.4149 210.841 99.6744 214.073C100.058 215.059 101.646 214.621 101.262 213.635C100.003 210.403 98.7982 207.225 97.5388 203.993C97.1555 203.007 95.5675 203.446 95.9508 204.432Z" fill="#5222D0"/>
<path d="M99.2911 195.283C100.989 198.241 102.686 201.254 104.384 204.212C104.931 205.144 106.3 204.322 105.807 203.391C104.11 200.433 102.412 197.42 100.715 194.461C100.167 193.53 98.7436 194.352 99.2911 195.283Z" fill="#5222D0"/>
<path d="M104.766 203.5C103.014 206.787 101.481 210.184 100.167 213.635C99.7833 214.621 101.371 215.059 101.755 214.073C103.014 210.732 104.492 207.445 106.19 204.322C106.683 203.391 105.259 202.569 104.766 203.5Z" fill="#5222D0"/>
<path d="M512.055 245.682C513.15 243.6 515.231 242.176 517.64 242.286C519.612 242.34 521.09 243.71 522.842 244.367C525.909 245.463 526.84 243.491 529.14 242.012C532.261 239.93 535.272 244.586 538.613 244.532C540.529 244.477 542.117 243.546 542.172 241.519C541.734 241.738 541.351 242.012 540.912 242.231C542.61 243.107 544.307 243.984 545.95 244.915C546.881 245.408 547.702 243.984 546.772 243.491C545.074 242.614 543.377 241.738 541.734 240.806C541.186 240.533 540.529 240.861 540.474 241.519C540.31 245.408 532.754 239.875 531.33 239.711C528.099 239.273 526.84 243.272 524.047 242.833C521.09 242.34 519.228 240.204 516.052 240.752C513.643 241.19 511.672 242.669 510.577 244.86C510.193 245.792 511.562 246.613 512.055 245.682Z" fill="#5222D0"/>
<path d="M533.027 234.561C535.491 231.822 539.379 235.273 542.172 235.602C545.403 235.986 547.921 232.534 551.043 234.287C553.616 235.766 558.325 239.272 560.187 234.78C560.57 233.794 558.982 233.356 558.599 234.342C557.285 237.519 552.576 233.082 550.988 232.425C548.852 231.493 547.429 232.26 545.512 233.192C543.212 234.287 541.569 233.904 539.379 232.918C538.394 232.48 537.408 232.096 536.313 231.932C534.615 231.713 533.082 232.041 531.877 233.356C531.165 234.178 532.315 235.328 533.027 234.561Z" fill="#5222D0"/>
<path d="M488.564 105.333C489.331 103.908 490.207 103.525 491.193 104.182C491.631 104.346 492.069 104.566 492.507 104.839C493 105.059 493.493 105.387 493.985 105.552C494.862 105.826 495.738 105.935 496.614 105.716C498.968 105.059 500.173 102.1 502.692 102.155C505.047 102.21 506.744 104.456 509.208 103.306C510.248 102.813 510.96 101.936 511.946 101.388C514.136 100.183 516.819 100.621 518.681 102.155C519.503 102.813 520.652 101.662 519.831 101.005C517.367 98.9779 513.972 98.3753 511.125 99.9639C509.865 100.676 508.825 102.21 507.182 101.991C506.251 101.881 505.43 101.224 504.554 100.895C503.24 100.402 502.035 100.238 500.721 100.84C499.078 101.607 497.983 103.744 496.176 104.127C493.876 104.62 492.343 102.265 490.207 102.21C488.181 102.155 485.827 104.127 487.195 106.154C487.743 107.031 489.167 106.209 488.564 105.333Z" fill="#EC615B"/>
<path d="M506.744 95.6361C507.401 92.0753 513.588 95.5266 515.779 95.1431C517.202 94.924 518.243 93.9379 519.557 93.4449C521.638 92.6231 523.664 92.9518 525.58 94.1022C526.511 94.65 527.333 93.2257 526.402 92.6779C524.759 91.6919 523.007 91.1988 521.145 91.3632C520.324 91.418 519.557 91.6371 518.845 91.911C516.655 92.8423 515.779 93.8831 513.041 93.2257C510.412 92.5684 505.922 91.2536 505.21 95.1979C504.937 96.2387 506.525 96.677 506.744 95.6361Z" fill="#EC615B"/>
<path d="M92.1723 293.615C92.8841 290.164 97.648 294.875 98.5789 295.478C99.6193 296.19 100.769 296.683 102.029 296.409C103.671 296.135 104.931 294.766 106.628 294.382C109.366 293.78 112.104 294.656 114.075 296.628C114.842 297.395 115.992 296.19 115.225 295.478C113.528 293.78 111.447 292.739 109.038 292.575C107.833 292.465 106.628 292.629 105.478 293.013C103.671 293.615 102.248 295.368 100.057 294.492C97.7576 293.561 96.8814 291.205 94.2531 290.931C92.5556 290.767 90.9676 291.424 90.639 293.177C90.3653 294.218 91.9532 294.656 92.1723 293.615Z" fill="#EC615B"/>
<path d="M110.407 289.671C111.612 288.028 117.142 291.315 118.73 291.698C121.304 292.301 123.932 292.301 126.561 291.972C127.601 291.808 127.163 290.219 126.123 290.384C121.578 290.986 118.073 289.781 113.966 288.137C112.105 287.425 110.243 287.151 108.983 288.85C108.381 289.671 109.805 290.493 110.407 289.671Z" fill="#EC615B"/>
<path d="M243.906 404.493C244.782 403.123 246.151 402.247 247.849 402.247C249.272 402.247 250.149 403.123 251.408 403.507C252.667 403.945 253.708 403.671 254.803 402.959C256.939 401.535 257.979 399.782 260.881 399.891C263.509 399.946 266.028 401.206 268.328 402.357C269.259 402.85 270.08 401.425 269.15 400.932C264.824 398.741 259.567 396.659 255.405 400.22C254.474 400.987 254.365 401.206 252.941 401.48C251.353 401.809 251.518 401.59 250.313 401.097C249.272 400.658 248.287 400.494 247.137 400.603C245.111 400.823 243.523 401.973 242.483 403.617C241.935 404.548 243.359 405.37 243.906 404.493Z" fill="#EC615B"/>
<path d="M262.141 407.67C264.715 405.424 269.588 410.135 272.764 409.697C274.681 409.423 275.557 407.999 276.816 406.684C279.226 404.109 282.84 403.726 285.796 405.643C286.673 406.191 287.494 404.821 286.618 404.219C284.482 402.849 281.963 402.411 279.499 403.123C278.404 403.452 277.418 403.945 276.542 404.657C275.228 405.753 274.407 407.725 272.545 408.054C268.548 408.766 264.769 403.178 260.991 406.52C260.224 407.232 261.374 408.382 262.141 407.67Z" fill="#EC615B"/>
<path d="M187.451 56.3033C187.889 54.4955 188.929 53.0712 190.681 52.3043C192.215 51.6469 193.474 52.0852 195.062 52.0304C196.814 51.9208 198.128 51.0443 199.169 49.7296C200.757 47.7575 201.797 45.7305 204.042 44.4158C206.616 42.9367 209.573 42.6628 212.42 43.5393C213.461 43.868 213.844 42.2793 212.858 41.9506C207.602 40.362 202.4 42.3889 199.224 46.8262C197.964 48.5792 197.033 50.3322 194.624 50.387C193.145 50.4417 191.886 50.113 190.462 50.6061C188.053 51.4278 186.41 53.4547 185.863 55.8651C185.589 56.9059 187.177 57.3442 187.451 56.3033Z" fill="#EC615B"/>
<path d="M195.171 62.6034C192.817 56.3583 204.097 56.687 207.492 55.4818C211.708 54.0027 215.322 51.3732 218.882 48.7437C219.703 48.1411 218.882 46.7168 218.06 47.3194C215.651 49.1272 213.187 50.8802 210.558 52.3045C207.273 54.0575 204.152 54.6053 200.592 55.1531C196.814 55.7557 191.886 58.3852 193.638 62.9869C193.967 63.9729 195.555 63.5894 195.171 62.6034Z" fill="#EC615B"/>
<path d="M413.545 376.663C417.707 365.762 424.771 358.64 432.054 351.245C441.636 341.548 459.433 323.525 477.557 326.374C492.999 328.784 491.302 343.63 512.493 354.422C532.48 364.666 540.146 354.531 560.077 365.542C563.034 367.186 583.897 379.073 588.661 401.534C590.632 410.847 590.139 423.611 586.033 424.816C581.378 426.185 579.79 399.342 561.173 388.824C546.936 380.772 527.332 384.661 525.744 390.413C524.047 396.494 543.705 400.493 554.821 421.638C559.694 430.842 560.735 439.223 562.213 450.727C563.582 461.574 565.115 483.815 560.077 485.13C555.916 486.226 553.671 471.38 538.393 459.218C530.344 452.809 521.747 450.179 504.553 444.92C489.057 440.209 481.226 437.908 477.01 441.743C470.767 447.44 475.586 461.903 476.462 464.477C482.595 482.884 498.256 490.553 497.106 492.525C495.573 494.991 466.989 487.869 443.662 465.025C423.73 445.468 401.444 408.272 413.545 376.663Z" fill="#F16A46"/>
<path d="M592.329 440.154C592.11 441.688 590.96 450.234 595.998 455.712C601.583 461.738 608.373 457.137 615.218 463.108C621.515 468.586 620.694 476.803 622.61 476.639C624.801 476.474 628.141 465.354 623.432 458.616C621.953 456.479 618.339 454.562 611.166 450.837C603.829 447.002 602.843 447.166 600.926 445.085C596.162 439.935 596.874 433.197 595.177 433.197C593.863 433.197 592.713 437.251 592.329 440.154Z" fill="#EC615B"/>
<path d="M545.238 504.467C542.171 509.069 542.5 513.999 542.774 519.204C543.102 524.517 543.321 528.845 546.442 532.734C550.002 537.172 555.915 539.034 556.682 538.048C557.284 537.281 554.601 535.2 552.192 530.653C551.918 530.105 548.359 523.367 548.523 515.478C548.687 505.618 554.492 499.756 553.013 498.715C551.918 497.894 547.702 500.742 545.238 504.467Z" fill="#EC615B"/>
<path d="M567.196 413.64C576.395 419.721 571.357 433.8 577.381 442.017C577.983 442.839 579.407 442.017 578.805 441.195C572.562 432.649 577.874 418.735 568.017 412.216C567.141 411.613 566.32 413.038 567.196 413.64Z" fill="#EC615B"/>
<path d="M563.91 373.979C573.766 381.538 580.611 392.33 583.349 404.437C583.568 405.478 585.156 405.04 584.937 403.999C582.09 391.454 574.971 380.388 564.786 372.609C563.855 371.897 563.034 373.321 563.91 373.979Z" fill="#5222D0"/>
<path d="M532.151 404.327C540.037 410.791 546.224 419.063 550.057 428.54C550.441 429.526 552.029 429.088 551.645 428.102C547.648 418.351 541.46 409.86 533.301 403.177C532.535 402.519 531.33 403.67 532.151 404.327Z" fill="#5222D0"/>
<path d="M553.89 437.58C555.369 441.524 556.354 445.523 556.738 449.687C556.847 450.727 558.49 450.727 558.38 449.687C557.942 445.359 556.957 441.196 555.423 437.142C555.15 436.156 553.562 436.594 553.89 437.58Z" fill="#5222D0"/>
<path d="M469.618 446.673C468.249 454.945 469.837 463.217 474.327 470.339C474.874 471.215 476.298 470.394 475.75 469.517C471.534 462.834 469.891 454.945 471.206 447.112C471.37 446.071 469.782 445.632 469.618 446.673Z" fill="#5222D0"/>
<path d="M476.517 474.831C478.489 478.446 481.007 481.678 484.019 484.472C484.786 485.184 485.936 484.034 485.169 483.322C482.267 480.583 479.857 477.46 477.941 474.009C477.448 473.078 476.024 473.899 476.517 474.831Z" fill="#5222D0"/>
<path d="M413.655 391.345C413.217 396.549 413.71 401.698 415.188 406.738C415.462 407.779 417.05 407.341 416.776 406.3C415.352 401.37 414.86 396.439 415.298 391.345C415.407 390.304 413.764 390.304 413.655 391.345Z" fill="#5222D0"/>
<path d="M416.831 412.325C417.707 416.598 419.295 420.542 421.595 424.267C422.143 425.144 423.567 424.322 423.019 423.446C420.829 419.83 419.295 416.05 418.419 411.887C418.2 410.901 416.612 411.339 416.831 412.325Z" fill="#5222D0"/>
<path d="M273.858 69.8892C272.325 74.0525 270.463 79.7498 268.656 86.6522C266.794 93.8285 262.414 112.728 262.852 137.599C263.29 161.593 267.999 179.232 272.325 194.955C279.06 219.497 287.274 237.136 292.147 247.38C292.147 247.38 307.644 280.194 333.325 315.364C337.87 321.554 343.674 329.388 343.674 329.388C347.891 335.03 351.505 339.741 354.024 343.138C356.05 345.439 358.623 348.013 361.964 350.478C368.206 355.135 374.394 357.49 378.719 358.696C385.838 352.615 392.956 346.479 400.075 340.399C403.306 343.466 406.591 346.479 409.822 349.547C414.312 344.946 418.309 341.275 421.431 338.591C435.01 326.813 446.236 320.787 448.864 319.363C451.109 318.158 453.026 317.226 454.34 316.624C452.314 312.57 450.288 308.516 448.262 304.407C451.547 301.559 455.326 298.546 459.542 295.588C465.237 291.589 470.713 288.357 475.696 285.837C475.641 281.235 475.038 274.278 472.027 266.608C469.782 260.856 467.099 256.967 465.949 255.324C453.3 237.081 490.59 287.371 441.855 217.798C422.964 190.846 413.545 177.315 409.22 171.727C395.694 154.033 385.071 141.926 377.515 133.326C363.059 116.837 356.543 110.701 351.286 106.209C344.113 99.964 336.173 93.2259 324.181 86.9809C316.624 83.0914 310.382 80.955 301.292 77.8324C290.067 73.9978 280.593 71.4778 273.858 69.8892Z" fill="white"/>
<path d="M272.161 70.8749C260.279 107.524 260.279 147.076 268.821 184.436C270.956 193.804 273.64 203.062 276.816 212.101C278.403 216.702 280.32 221.195 282.018 225.741C282.62 227.33 282.729 228.919 283.441 230.507C284.482 232.972 285.577 235.438 286.672 237.903C288.698 242.504 290.833 247.051 293.079 251.598C295.324 256.09 298.062 260.363 300.088 264.91C300.854 266.608 301.511 268.416 302.387 270.059C303.537 272.141 305.235 273.73 306.439 275.757C308.958 279.975 311.368 284.302 313.996 288.466C325.988 307.804 339.623 326.046 353.586 343.959C354.243 344.781 355.393 343.63 354.736 342.809C342.415 326.977 330.369 310.926 319.527 294.108C316.844 289.945 314.27 285.782 311.751 281.509C310.546 279.482 309.342 277.4 308.192 275.318C307.042 273.291 305.509 271.867 304.304 269.895C303.318 268.252 302.606 266.499 301.895 264.746C300.909 262.39 299.595 260.253 298.39 258.007C296.09 253.789 293.955 249.516 291.929 245.189C289.793 240.642 287.767 236.04 285.741 231.439C284.865 229.412 284.536 227.275 283.715 225.194C282.839 222.948 281.908 220.701 281.032 218.401C277.692 209.581 274.789 200.597 272.38 191.448C267.561 172.932 264.769 153.923 264.495 134.75C264.221 113.221 267.178 91.6918 273.859 71.1488C274.023 70.3271 272.435 69.8889 272.161 70.8749Z" fill="black"/>
<path d="M272.928 70.875C282.072 71.5871 291.381 74.7644 299.978 77.7774C308.466 80.7904 316.844 84.0773 324.619 88.5693C340.116 97.5534 353.805 109.331 366.29 122.15C379.158 135.352 390.876 149.869 402.211 164.386C413.491 178.849 424.278 193.804 434.682 208.924C446.182 225.741 457.243 242.888 468.085 260.199C468.632 261.075 470.056 260.254 469.508 259.377C449.631 227.768 429.097 196.543 406.263 166.961C384.196 138.311 360.54 109.057 329.547 89.6101C321.115 84.2964 312.08 80.4617 302.771 77.0105C293.353 73.5593 283.058 69.9985 272.983 69.1768C271.887 69.1768 271.887 70.8202 272.928 70.875Z" fill="black"/>
<path d="M355.941 343.466C381.458 317.445 410.151 294.602 441.199 275.538C449.96 270.169 458.831 265.129 467.92 260.418C468.851 259.925 468.03 258.501 467.099 258.994C434.847 275.866 404.62 296.628 377.406 320.787C369.63 327.689 362.074 334.866 354.791 342.316C354.024 343.083 355.174 344.233 355.941 343.466Z" fill="black"/>
<path d="M354.353 344.726C360.869 352.012 369.357 357.161 378.83 359.462C379.87 359.736 380.308 358.147 379.268 357.873C370.014 355.572 361.855 350.642 355.503 343.521C354.791 342.754 353.641 343.959 354.353 344.726Z" fill="black"/>
<path d="M467.646 260.856C471.917 268.361 474.381 276.633 474.929 285.234C474.984 286.275 476.626 286.275 476.572 285.234C476.024 276.305 473.45 267.814 469.07 260.035C468.577 259.103 467.153 259.925 467.646 260.856Z" fill="black"/>
<path d="M379.815 359.024C409.439 331.962 441.527 307.749 475.751 286.768C476.627 286.22 475.805 284.796 474.929 285.343C440.651 306.379 408.398 330.702 378.665 357.874C377.898 358.586 379.048 359.736 379.815 359.024Z" fill="black"/>
<path d="M400.459 341.384C403.471 344.343 406.482 347.301 409.494 350.314C409.822 350.642 410.37 350.642 410.644 350.314C419.515 340.891 429.48 332.565 440.377 325.608C443.006 323.909 445.689 322.321 448.427 320.787C450.179 319.801 453.519 318.869 454.56 317.007C455.655 315.144 454.012 312.624 453.136 311.036C451.603 308.242 449.796 305.667 447.824 303.257C447.167 302.435 446.017 303.585 446.674 304.407C448.591 306.763 450.288 309.228 451.712 311.857C452.041 312.405 452.753 313.337 452.807 313.994C452.588 314.98 452.369 315.911 452.15 316.897C451.876 317.062 451.603 317.171 451.329 317.336C450.234 318.157 448.81 318.65 447.605 319.362C442.841 322.047 438.187 324.95 433.697 328.073C424.936 334.263 416.831 341.33 409.494 349.109C409.877 349.109 410.261 349.109 410.644 349.109C407.632 346.15 404.62 343.192 401.609 340.179C400.842 339.467 399.692 340.618 400.459 341.384Z" fill="black"/>
<path d="M276.049 206.349C289.519 190.462 305.289 176.712 321.443 163.62C337.651 150.527 354.626 138.256 373.627 129.546C374.613 129.107 373.737 127.683 372.806 128.121C353.969 136.722 337.158 148.883 321.06 161.812C304.632 175.069 288.588 189.038 274.899 205.144C274.187 206.02 275.337 207.171 276.049 206.349Z" fill="black"/>
<path d="M373.956 137.215C372.149 137.325 371.382 134.312 373.408 134.147C374.12 134.093 374.942 134.421 375.215 135.134C375.599 136.174 374.613 137.27 373.573 137.27C372.806 137.27 372.751 138.53 373.573 138.53C375.27 138.53 376.749 136.941 376.475 135.243C376.256 133.819 374.777 132.942 373.408 132.997C371.93 133.107 370.78 134.312 370.944 135.791C371.109 137.27 372.423 138.64 373.956 138.53C374.777 138.42 374.777 137.16 373.956 137.215Z" fill="black"/>
<path d="M457.571 258.391C457.625 258.391 457.625 258.391 457.68 258.336C457.516 258.336 457.352 258.281 457.187 258.281C457.79 258.555 457.461 257.405 457.406 257.24C457.406 257.076 457.461 256.857 457.516 256.693C457.68 256.364 457.954 256.035 458.283 255.871C458.994 255.542 459.761 256.09 459.98 256.802C460.418 258.226 458.337 258.939 457.79 257.679C457.461 256.966 456.421 257.569 456.749 258.281C457.406 259.815 459.651 259.925 460.747 258.774C462.006 257.405 461.075 255.104 459.378 254.611C457.571 254.118 455.818 256.035 456.256 257.788C456.421 258.5 457.352 259.377 458.064 258.665C458.611 258.117 458.064 256.912 457.242 257.24C456.53 257.514 456.859 258.665 457.571 258.391Z" fill="black"/>
<path opacity="0.15" d="M273.858 70.2173C282.51 75.805 294.228 84.0221 307.042 95.0332C314.982 101.881 335.57 120.233 361.307 155.84C389.233 194.461 403.196 213.744 405.989 235.273C407.413 246.503 409.384 278.495 381.184 317.828C392.847 308.954 404.565 300.024 416.229 291.15C421.321 299.531 426.359 307.913 431.451 316.294C425.976 320.348 420.5 324.347 415.024 328.401C417.707 331.633 420.39 334.81 423.073 338.043C426.359 334.865 430.301 331.469 434.846 328.127C441.855 322.978 448.591 319.307 454.395 316.623C452.205 312.405 450.069 308.132 447.879 303.914C457.297 297.724 466.715 291.479 476.134 285.288C475.641 280.632 474.491 273.894 471.479 266.334C467.975 257.459 463.539 251.543 461.842 249.242C449.576 232.644 455.545 236.643 429.863 200.542C411.41 174.575 401.225 160.058 384.907 141.268C374.449 129.217 367.494 121.273 356.378 111.468C344.551 101.004 330.204 88.569 308.301 79.4753C294.338 73.7781 282.072 71.3677 273.858 70.2173Z" fill="#494949"/>
<path opacity="0.11" d="M449.686 229.356C449.193 232.862 448.208 238.231 445.744 244.312C440.049 258.39 431.288 264.526 412.998 283.042C404.347 291.807 391.479 304.79 392.683 306.214C393.833 307.584 407.906 296.737 432.492 280.522C446.894 270.99 458.995 263.595 466.935 258.774C461.185 248.968 455.436 239.162 449.686 229.356Z" fill="#494949"/>
<path opacity="0.08" d="M468.085 260.418C467.318 260.582 469.18 266.553 466.935 274.004C465.292 279.482 462.499 282.111 455.655 290.383C452.698 293.944 448.372 299.313 443.225 306.215C453.957 298.874 464.69 291.534 475.422 284.193C470.549 264.8 468.742 260.308 468.085 260.418Z" fill="#494949"/>
<path d="M375.598 439.717C375.762 441.306 376.365 442.566 377.296 444.1C381.238 450.454 387.754 454.344 392.463 456.59C390.602 462.451 388.357 470.888 386.714 481.186C385.181 491.102 383.374 502.661 385.728 503.428C386.55 503.702 388.959 502.935 411.355 458.562C414.476 452.372 417.05 447.222 418.747 443.716C406.81 438.348 394.928 432.924 382.99 427.556C381.84 428.432 374.996 433.417 375.598 439.717Z" fill="#092B47" stroke="#161616" stroke-width="2" stroke-miterlimit="10"/>
<path d="M350.629 318.541C340.553 325.553 334.037 332.346 328.233 338.481C325.878 340.946 314.598 352.943 302.715 371.788C297.459 380.115 293.571 387.456 290.888 392.988C291.216 395.235 291.983 398.467 294.009 401.699C296.254 405.314 298.773 406.903 302.715 410.409C307.534 414.682 309.286 417.202 312.079 420.05C317.5 425.638 325.111 429.856 340.115 438.128C358.952 448.482 369.082 452.262 372.203 453.412C376.036 454.782 379.267 455.823 381.567 456.535C382.662 451.44 383.976 446.017 385.619 440.319C387.097 435.225 388.685 430.459 390.273 426.022C378.61 417.476 366.618 407.889 354.462 397.042C350.245 393.317 346.193 389.537 342.305 385.812C346.248 381.046 351.778 374.801 358.787 368.063C360.813 366.091 365.085 362.037 370.287 357.764C376.858 352.45 386.769 345.329 400.458 338.755C402.813 323.033 400.02 308.352 391.423 303.586C380.691 297.669 364.373 309.009 350.629 318.541Z" fill="white"/>
<path d="M339.568 326.704C320.183 343.138 304.139 363.462 292.75 386.196C291.6 388.552 289.957 391.181 289.738 393.811C289.519 396.604 291.216 398.741 292.75 400.877C296.418 405.862 300.58 410.519 305.015 414.847C314.434 423.885 325.276 431.336 336.665 437.636C350.683 445.414 365.523 451.605 380.307 457.74C381.293 458.124 381.731 456.535 380.745 456.152C356.543 446.072 331.847 435.773 311.641 418.626C307.096 414.737 302.77 410.574 298.882 406.027C296.856 403.616 294.83 401.151 293.078 398.577C291.983 396.988 291.162 395.509 291.435 393.482C291.709 391.51 292.859 389.647 293.735 387.839C298.992 377.157 305.289 367.023 312.517 357.545C320.786 346.644 330.259 336.729 340.717 327.909C341.539 327.197 340.389 326.046 339.568 326.704Z" fill="black"/>
<path d="M386.002 345.602C367.22 357.764 350.793 373.157 337.486 391.126C336.884 392.002 338.308 392.824 338.91 391.947C352.052 374.198 368.315 358.969 386.823 346.972C387.699 346.479 386.878 345.055 386.002 345.602Z" fill="black"/>
<path d="M341.375 386.634C356.762 400.549 372.587 413.915 388.905 426.679C389.726 427.337 390.876 426.186 390.055 425.529C373.737 412.765 357.857 399.398 342.525 385.484C341.758 384.772 340.608 385.922 341.375 386.634Z" fill="black"/>
<path d="M388.959 426.46C385.509 436.211 382.826 446.181 380.855 456.316C380.636 457.357 382.224 457.795 382.443 456.754C384.414 446.62 387.152 436.649 390.547 426.898C390.875 425.912 389.287 425.474 388.959 426.46Z" fill="black"/>
<path opacity="0.11" d="M371.82 339.467C364.263 340.125 358.568 345.658 340.991 370.09C334.256 379.458 328.616 387.62 324.29 394.084C330.532 398.467 335.461 402.082 338.582 404.438C356.05 417.531 363.387 424.871 378.226 432.869C381.457 434.622 384.14 435.882 385.728 436.594C386.988 433.143 388.247 429.692 389.452 426.241C385.29 422.625 381.129 419.064 376.912 415.449C365.304 405.588 353.804 396.056 342.36 386.798C347.124 380.115 351.614 375.075 354.9 371.624C364.592 361.489 374.229 354.642 381.731 349.383C384.305 347.575 386.495 346.151 387.919 345.219C380.855 339.796 375.324 339.139 371.82 339.467Z" fill="#494949"/>
<path opacity="0.08" d="M374.01 353.765C369.301 354.861 363.004 356.997 356.597 361.27C340.936 371.733 335.68 387.729 334.146 393.208C342.579 399.781 351.286 406.41 360.321 413.038C369.082 419.503 377.789 425.638 386.276 431.554C387.535 429.747 388.795 427.884 390 426.076C378.336 417.585 366.235 407.779 354.133 396.549C350.3 393.043 346.631 389.482 343.127 385.976C345.043 383.457 347.124 380.882 349.314 378.252C357.528 368.501 365.961 360.448 374.01 353.765Z" fill="#494949"/>
<path d="M477.666 421.804C483.47 427.282 489.329 432.815 495.134 438.293C493.601 473.243 496.503 481.46 499.569 482.063C504.333 482.994 512.492 466.505 516.051 453.522C518.735 443.661 519.008 435.006 518.734 429.144C509.645 421.037 500.555 412.929 491.465 404.767C486.865 410.464 482.266 416.161 477.666 421.804Z" fill="#092B47" stroke="#161616" stroke-width="2" stroke-miterlimit="10"/>
<path d="M363.715 323.252C364.208 332.346 370.56 337.879 370.56 337.879C374.503 341.33 378.938 342.261 381.128 342.535C382.881 343.247 384.633 344.014 386.44 344.726C389.178 348.671 393.23 354.258 398.596 360.613C405.715 369.159 415.297 379.348 438.734 398.631C450.288 408.108 465.182 419.777 483.197 432.595C485.771 431.335 488.837 429.473 491.904 426.734C498.639 420.763 501.76 413.805 503.184 409.861C500.008 406.793 495.299 402.192 489.823 396.495C465.51 371.35 449.302 349.821 436.927 333.277C428.768 322.376 418.309 307.859 406.755 290.329C380.307 297.56 363.058 311.584 363.715 323.252Z" fill="white"/>
<path d="M372.203 339.961C376.584 341.495 380.91 342.974 385.29 344.507C386.276 344.836 386.714 343.247 385.728 342.919C381.348 341.385 377.022 339.906 372.641 338.372C371.655 338.043 371.217 339.632 372.203 339.961Z" fill="black"/>
<path d="M383.483 342.863C404.072 371.185 430.739 394.084 458.392 415.284C466.332 421.365 474.381 427.391 482.43 433.362C483.307 434.019 484.073 432.54 483.252 431.937C455.544 411.395 427.673 390.578 404.127 365.269C397.282 357.928 390.875 350.149 384.962 342.042C384.305 341.22 382.881 342.042 383.483 342.863Z" fill="black"/>
<path d="M415.79 304.681C435.175 334.427 457.023 362.475 481.116 388.551C488.071 396.111 495.244 403.452 502.527 410.628C503.293 411.395 504.443 410.19 503.677 409.478C478.324 384.607 455.106 357.6 434.298 328.84C428.385 320.677 422.69 312.351 417.159 303.86C416.612 302.983 415.188 303.805 415.79 304.681Z" fill="black"/>
<path d="M501.595 409.587C498.419 419.009 492.286 427.774 483.032 431.938C482.047 432.376 482.923 433.8 483.854 433.362C493.491 429.034 499.843 419.831 503.129 410.025C503.512 409.039 501.924 408.601 501.595 409.587Z" fill="black"/>
<path opacity="0.09" d="M415.845 303.805C412.724 299.586 410.096 296.135 408.343 293.889C406.591 297.121 404.182 302.545 403.963 309.283C403.47 324.512 414.641 331.031 446.674 366.529C460.637 381.977 468.029 391.29 486.045 409.697C490.261 413.97 493.82 417.53 496.394 420.05C498.365 416.599 500.337 413.148 502.363 409.697C485.004 392.276 471.26 376.554 460.966 364.119C451.055 352.122 442.184 341.385 433.039 328.018C430.685 324.676 424.716 315.747 415.845 303.805Z" fill="#494949"/>
<path opacity="0.09" d="M425.537 319.198C426.304 322.978 427.892 329.388 431.013 336.838C440.048 358.093 453.409 367.077 477.448 393.646C482.047 398.74 489.166 406.793 497.489 417.202C499.405 414.463 501.322 411.778 503.238 409.039C501.486 407.396 498.694 404.821 495.299 401.534C489.056 395.508 472.136 378.691 439.829 337.659C436.324 333.277 431.396 326.922 425.537 319.198Z" fill="#494949"/>
<path d="M247.795 270.771C246.7 271.21 245.057 272.141 240.184 279.975C234.927 288.411 231.368 294.163 228.739 303.257C226.439 311.364 225.892 318.76 226.056 324.786C226.439 326.539 226.713 329.113 225.837 331.962C224.687 335.577 222.606 336.454 218.664 341.384C217.076 343.356 214.447 346.698 212.367 351.245C210.067 356.34 211.217 356.997 209.026 361.982C206.398 367.953 202.51 372.062 201.853 372.719C198.239 376.499 196.487 376.609 194.899 379.895C193.092 383.621 193.639 387.127 193.804 388.167C193.913 388.934 195.063 395.618 198.951 396.439C199.991 396.659 201.634 396.549 202.291 395.563C203.332 394.029 200.922 391.893 200.484 388.167C200.101 384.771 201.579 382.032 202.51 380.334C205.303 375.13 208.534 375.896 211.49 371.569C214.338 367.296 211.655 365.981 214.393 357.928C215.926 353.436 217.459 348.944 221.566 345.602C223.428 344.069 225.235 343.247 226.932 340.672C228.411 338.426 228.958 336.18 229.177 334.646C232.189 339.467 235.365 342.589 237.665 344.507C240.731 347.027 244.236 349.985 247.193 348.889C248.781 348.287 250.204 346.479 249.93 345.219C249.766 344.507 249.109 344.288 247.412 342.754C247.412 342.754 246.755 342.151 245.276 340.563C244.29 339.522 242.867 337.604 241.607 333.989C242.1 333.441 243.36 332.236 245.057 332.126C246.919 332.071 248.342 333.386 249.766 334.811C252.449 337.44 252.34 339.029 254.037 340.617C255.351 341.877 257.761 343.192 262.525 342.863C262.306 342.261 261.922 341.275 261.43 340.179C259.732 336.509 258.856 336.125 258.746 334.591C258.692 333.386 259.185 333.058 261.43 329.223C263.346 325.936 264.277 324.293 264.332 323.416C264.606 320.184 261.813 319.088 261.211 315.363C260.663 312.241 262.032 309.721 263.018 307.749C268.712 296.19 272.326 288.849 271.286 283.316C269.698 274.661 255.899 267.375 247.795 270.771Z" fill="#092B47"/>
<path d="M245.275 272.744C237.335 280.851 232.242 291.15 228.847 301.887C225.562 312.35 223.098 324.293 228.3 334.537C228.793 335.468 230.216 334.646 229.723 333.715C224.576 323.635 227.369 311.693 230.709 301.449C233.995 291.26 238.868 281.618 246.425 273.894C247.136 273.127 245.987 271.977 245.275 272.744Z" fill="#092B47"/>
<path d="M237.061 320.074C237.718 319.745 238.375 319.472 239.032 319.143C239.525 319.417 240.018 319.745 240.511 320.019C241.113 320.567 241.661 321.279 242.044 321.992C242.811 323.306 243.194 324.895 243.084 326.429C242.865 329.387 240.73 331.688 240.182 334.536C239.854 336.289 241.004 337.549 241.989 338.864C243.687 341.11 245.658 343.192 247.794 345.054C248.56 345.767 249.765 344.616 248.943 343.904C247.575 342.644 246.206 341.384 245.001 339.96C243.03 337.714 241.277 335.796 242.646 332.674C243.851 329.935 245.11 327.36 244.563 324.238C244.125 321.827 242.756 319.362 240.62 318.047C238.813 316.952 236.623 317.171 235.637 319.198C235.145 320.184 236.568 321.005 237.061 320.074Z" fill="#092B47"/>
<path d="M228.41 334.756C231.585 339.85 235.966 344.068 241.278 346.862C242.866 347.684 245.877 349.601 247.794 348.779C249.601 348.013 249.272 345.821 248.779 344.342C248.451 343.356 246.863 343.794 247.191 344.78C248.451 348.779 243.139 345.986 242.099 345.438C240.401 344.561 238.814 343.52 237.28 342.315C234.269 339.96 231.804 337.111 229.778 333.879C229.286 333.057 227.862 333.879 228.41 334.756Z" fill="#161616"/>
<path d="M266.138 284.467C262.907 295.314 260.881 306.489 259.95 317.774C259.895 318.103 260.224 318.486 260.552 318.541C264.002 319.472 263.509 323.745 262.25 326.155C260.99 328.456 259.019 330.374 258.033 332.839C256.281 337.276 261.483 338.7 261.374 342.59C261.648 342.316 261.921 342.042 262.195 341.768C257.267 341.494 253.105 338.865 250.641 334.592C248.889 331.524 246.863 330.867 243.358 331.086C242.318 331.14 242.318 332.784 243.358 332.729C244.673 332.674 246.261 332.51 247.465 333.167C248.506 333.77 248.834 334.811 249.382 335.742C250.313 337.331 251.517 338.755 252.941 339.905C255.624 342.097 258.745 343.192 262.14 343.411C262.578 343.411 262.962 343.028 262.962 342.59C263.016 340.289 261.483 338.919 260.224 337.166C257.595 333.496 261.921 330.1 263.619 326.977C265.481 323.581 265.426 318.103 260.936 316.952C261.155 317.226 261.319 317.5 261.538 317.719C262.414 306.544 264.495 295.587 267.671 284.85C267.999 283.919 266.411 283.481 266.138 284.467Z" fill="#092B47"/>
<path d="M225.507 325.279C225.89 328.566 225.452 331.798 223.864 334.756C222.386 337.55 219.977 339.577 217.622 341.713C213.46 345.602 211.544 349.875 210.23 355.354C208.806 361.16 207.109 365.817 202.892 370.199C199.716 373.431 195.993 376.444 194.021 380.662C192.105 384.771 192.379 389.537 194.843 393.372C196.266 395.618 201.14 400.11 203.002 395.837C203.768 394.084 202.892 391.893 202.29 390.194C201.742 388.715 201.03 387.236 201.03 385.593C201.03 383.292 202.345 381.32 203.878 379.731C207.601 375.842 212.365 373.65 214.008 368.118C214.939 364.995 214.282 361.872 214.501 358.695C214.775 354.751 216.636 351.409 219.484 348.725C223.81 344.616 229.559 341.22 229.559 334.537C229.559 333.496 227.917 333.496 227.917 334.537C227.862 340.946 221.619 344.123 217.677 348.177C214.61 351.3 212.858 355.244 212.803 359.626C212.749 362.53 213.241 365.269 212.256 368.063C211.161 371.24 208.861 373.377 206.342 375.458C203.111 378.033 199.388 381.046 199.388 385.593C199.388 387.784 200.483 389.756 201.14 391.838C201.304 392.386 201.907 393.865 201.633 394.303C201.085 394.358 200.483 394.467 199.935 394.522C198.95 395.125 198.183 395.015 197.635 394.193C196.431 393.426 195.39 391.126 194.952 389.811C193.2 384.661 195.609 380.06 199.059 376.335C201.961 373.157 205.356 370.473 207.766 366.858C210.339 363.023 211.106 358.476 212.201 354.094C213.022 350.916 214.118 347.848 216.308 345.329C218.224 343.083 220.634 341.384 222.605 339.193C226.109 335.358 227.697 330.373 227.095 325.279C227.04 324.238 225.398 324.238 225.507 325.279Z" fill="#092B47"/>
<path d="M189.969 258.556C188.819 259.213 186.683 260.363 186.245 262.774C185.698 265.458 187.614 267.649 187.888 267.923C187.56 268.307 186.574 269.457 186.464 271.21C186.355 274.113 188.928 275.812 189.038 275.921C188.928 276.031 187.34 277.674 187.888 279.92C188.326 281.838 190.024 282.659 190.243 282.714C190.133 283.043 189.75 284.467 190.462 285.782C191.557 287.754 194.185 287.644 194.459 287.644C196.321 287.535 198.073 286.275 198.894 284.358C199.935 284.96 202.673 286.384 206.396 286.001C208.915 285.727 210.777 284.741 211.762 284.138C213.734 287.59 216.8 292.246 221.345 297.012C225.342 301.175 232.789 309.009 243.851 312.241C257.65 316.295 269.861 311.036 276.87 308.023C295.706 299.915 305.07 285.015 308.52 279.427C314.324 269.895 316.35 261.733 318.102 254.337C320.95 242.614 319.964 238.013 319.033 235.328C318.485 233.685 315.255 224.263 307.808 223.167C301.73 222.236 296.692 227.44 296.089 228.097C294.009 230.288 292.914 233.192 290.723 238.889C289.628 241.793 288.916 243.984 288.588 244.97C285.028 256.529 283.221 262.281 282.729 263.486C281.414 266.773 278.293 274.278 270.791 280.139C263.618 285.727 256.116 286.932 252.776 287.425C247.738 288.137 241.551 289.014 234.98 285.782C227.642 282.166 224.357 275.593 223.481 273.84C220.852 268.416 220.359 262.39 219.976 258.117C219.483 252.639 219.867 248.366 216.691 244.97C216.088 244.367 214.665 242.833 213.186 243.107C211.051 243.545 209.846 247.654 208.751 251.544C207.82 254.83 208.094 255.214 207.327 255.981C205.739 257.569 203.713 256.748 196.759 257.131C192.707 257.405 191.283 257.843 189.969 258.556Z" fill="white"/>
<path d="M201.304 256.2C195.39 255.104 184.986 256.638 185.808 264.746C186.519 272.032 195.171 273.292 200.373 270.114C201.249 269.567 200.428 268.142 199.552 268.69C195.226 271.32 187.396 270.607 187.396 264.034C187.396 257.679 196.321 256.967 200.866 257.789C201.906 258.008 202.344 256.419 201.304 256.2Z" fill="black"/>
<path d="M187.231 267.43C181.317 274.661 195.554 283.755 199.77 274.661C200.209 273.73 198.785 272.854 198.347 273.84C195.061 280.852 184.11 273.84 188.436 268.581C189.093 267.814 187.943 266.609 187.231 267.43Z" fill="black"/>
<path d="M187.56 274.771C186.3 277.62 187.177 281.235 190.079 282.714C192.926 284.193 196.485 282.824 197.964 280.085C198.457 279.154 197.033 278.332 196.54 279.263C195.445 281.18 192.981 282.276 190.9 281.29C188.819 280.304 188.053 277.62 188.984 275.593C189.422 274.661 187.998 273.84 187.56 274.771Z" fill="black"/>
<path d="M188.874 282.112C188.655 285.015 190.353 287.645 193.31 288.247C196.048 288.795 198.566 286.987 199.497 284.522C199.881 283.536 198.293 283.098 197.909 284.084C197.198 285.946 195.226 287.152 193.255 286.549C191.229 285.946 190.408 284.084 190.517 282.112C190.572 281.071 188.929 281.071 188.874 282.112Z" fill="black"/>
<path d="M194.076 264.198C195.5 264.034 196.979 264.089 198.183 264.911C199.333 265.678 199.99 267.211 199.333 268.471C198.84 269.403 200.264 270.224 200.757 269.293C201.633 267.595 201.25 265.623 199.935 264.253C198.457 262.665 196.102 262.336 194.022 262.555C193.036 262.719 193.036 264.363 194.076 264.198Z" fill="black"/>
<path d="M199.168 285.618C202.016 284.577 204.754 286.933 207.711 286.604C209.956 286.33 211.927 285.125 213.789 284.029C214.665 283.482 213.844 282.057 212.967 282.605C210.175 284.303 207.765 285.509 204.425 284.522C202.399 283.92 200.811 283.262 198.73 284.029C197.745 284.413 198.128 286.002 199.168 285.618Z" fill="black"/>
<path d="M200.865 257.624C203.713 258.61 207.546 258.775 209.134 255.652C210.01 253.899 209.462 251.763 209.846 249.9C210.284 247.38 211.708 245.299 213.679 243.71C214.5 243.053 213.35 241.902 212.529 242.56C210.393 244.313 208.86 246.723 208.313 249.462C208.039 250.996 208.422 252.804 207.984 254.283C206.998 257.241 203.713 256.857 201.413 256.036C200.318 255.707 199.88 257.296 200.865 257.624Z" fill="black"/>
<path d="M212.474 243.819C217.129 244.422 217.731 252.256 218.498 255.816C219.429 260.473 219.921 265.184 220.797 269.84C222.221 277.291 226.547 283.207 233.447 286.549C240.675 290 248.888 289.836 256.445 287.754C264.22 285.563 272.27 281.618 277.307 275.099C277.965 274.278 276.815 273.127 276.158 273.949C270.901 280.742 262.359 284.741 254.145 286.658C245.877 288.576 236.841 287.863 229.942 282.495C222.495 276.743 222.331 268.087 220.852 259.487C220.14 255.433 219.538 251.05 218.06 247.216C217.129 244.805 215.65 242.614 212.967 242.231C211.872 242.066 211.434 243.655 212.474 243.819Z" fill="black"/>
<path d="M211.269 285.125C217.895 293.232 224.302 302.49 233.063 308.461C241.66 314.268 252.283 314.871 262.249 313.227C282.509 309.831 299.703 296.081 309.56 278.332C315.2 268.252 318.54 257.077 320.018 245.627C320.128 244.586 318.485 244.586 318.376 245.627C315.857 265.184 307.315 284.358 292.092 297.286C284.59 303.641 275.665 308.407 266.082 310.707C256.171 313.118 244.726 313.446 235.691 308.133C226.054 302.49 219.319 292.41 212.419 283.919C211.762 283.152 210.612 284.303 211.269 285.125Z" fill="black"/>
<path d="M308.575 222.948C304.03 221.14 299.211 223.496 296.035 226.837C292.312 230.672 290.45 235.767 289.081 240.807C287.493 246.668 286.069 252.475 283.824 258.117C281.415 264.198 278.348 269.95 274.844 275.428C274.241 276.305 275.665 277.127 276.267 276.25C281.908 267.54 286.233 258.063 288.917 248.038C290.34 242.779 291.271 237.301 293.899 232.535C296.528 227.714 302.113 222.126 308.137 224.537C309.122 224.92 309.56 223.331 308.575 222.948Z" fill="black"/>
<path d="M196.54 281.235C198.073 281.345 197.745 283.919 197.471 284.851C197.142 285.837 198.73 286.275 199.059 285.289C199.771 283.207 199.278 279.811 196.54 279.592C195.5 279.537 195.5 281.18 196.54 281.235Z" fill="black"/>
<path d="M197.471 276.195C197.799 277.51 197.307 278.879 196.266 279.646C195.39 280.249 196.211 281.673 197.088 281.071C198.785 279.865 199.606 277.784 199.059 275.757C198.84 274.716 197.252 275.154 197.471 276.195Z" fill="black"/>
<path d="M198.402 270.498C199.88 271.21 198.894 273.566 198.183 274.497C197.526 275.319 198.949 276.14 199.606 275.319C200.866 273.675 201.523 270.169 199.223 269.073C198.292 268.635 197.471 270.06 198.402 270.498Z" fill="black"/>
<path opacity="0.11" d="M187.121 270.717C187.998 270.224 189.421 273.292 193.09 274.826C194.459 275.373 196.156 275.757 203.932 274.826C206.451 274.497 209.736 274.059 213.679 273.347C214.446 276.469 216.034 281.18 219.264 286.056C220.633 288.083 226.164 295.971 236.842 300.628C248.286 305.667 258.635 303.969 262.632 303.257C266.027 302.654 275.501 300.847 283.933 293.506C289.573 288.631 293.187 282.714 298.499 267.321C302.113 256.857 306.493 242.34 309.724 224.317C311.914 226.563 315.309 230.617 317.226 236.643C318.157 239.547 319.033 243.819 318.321 250.503C316.843 264.91 309.615 276.907 305.234 283.043C300.689 289.452 292.585 300.518 277.581 307.366C275.555 308.297 264.111 313.282 249.545 312.625C246.205 312.46 243.139 312.296 239.36 310.926C235.254 309.447 231.147 305.613 222.988 298.053C219.593 294.93 216.253 291.643 212.858 286.877C212.2 285.946 211.653 285.124 211.27 284.577C210.12 285.344 208.422 286.22 206.506 286.001C203.932 285.782 203.056 283.919 200.92 284.248C199.059 284.522 199.059 286.056 196.814 286.877C195.061 287.48 192.597 287.425 190.954 286.165C189.75 285.234 189.586 284.193 188.217 278.277C186.902 272.47 186.519 271.046 187.121 270.717Z" fill="#494949"/>
<path d="M249.711 256.474C248.671 256.693 248.287 258.775 247.63 262.007C247.247 263.979 247.083 265.677 247.028 266.882C244.838 269.457 244.618 271.813 244.564 272.744C244.509 274.661 245.166 276.14 246.425 278.88C247.302 280.852 248.232 282.386 248.89 283.426C246.535 283.974 244.892 285.508 244.783 287.151C244.673 288.74 246.097 290 246.645 290.438C249.109 292.575 250.916 290.986 254.037 292.684C256.556 294.054 256.337 295.588 260.005 297.615C262.305 298.875 263.017 298.601 263.291 298.436C264.222 297.834 263.893 295.862 263.729 294.547C263.51 292.958 262.853 290.548 261.046 287.754C263.181 286.987 265.317 286.22 267.398 285.508C265.864 285.672 265.536 285.727 265.536 285.727C265.536 285.672 269.314 284.139 272.545 285.508C275.228 286.658 275.447 289.069 277.692 289.233C278.952 289.343 280.375 288.631 280.978 287.59C282.237 285.453 279.882 282.331 279.335 281.619C277.09 278.66 273.804 277.784 272.326 277.51C272.819 276.414 273.366 274.661 273.476 272.47C273.585 268.745 272.052 266.006 271.34 264.856C270.355 261.623 269.424 258.391 268.438 255.104C266.905 258.665 265.207 259.761 263.893 260.035C262.415 260.363 261.593 259.651 259.184 260.035C256.884 260.418 256.775 261.13 255.461 261.076C252.394 260.747 251.354 256.145 249.711 256.474Z" fill="#092B47"/>
<path d="M251.078 273.784C252.009 274.88 253.488 275.592 254.966 275.209C256.28 274.88 257.156 273.784 257.321 272.469C257.375 271.922 256.554 271.922 256.499 272.469C256.39 273.62 255.404 274.442 254.254 274.496C253.214 274.551 252.338 273.949 251.681 273.182C251.297 272.798 250.75 273.401 251.078 273.784Z" fill="white"/>
<path d="M262.797 271.976C264.165 273.949 268.601 274.113 268.437 270.99C268.382 270.443 267.56 270.443 267.615 270.99C267.779 273.236 264.439 272.908 263.508 271.538C263.18 271.1 262.468 271.538 262.797 271.976Z" fill="white"/>
<path d="M260.661 278.057C260.661 278.112 260.716 278.167 260.716 278.222C260.88 278.276 261.099 278.331 261.264 278.386C261.154 278.167 260.99 278.057 260.716 278.057C260.935 278.003 261.099 277.893 261.318 277.838C261.264 277.783 261.209 277.674 261.154 277.619C260.88 277.729 260.661 277.838 260.388 277.948C260.771 278.55 260.607 279.646 260.388 280.249C260.114 281.07 258.964 282.166 258.252 281.07C257.978 280.632 257.266 281.016 257.54 281.509C258.252 282.604 259.73 282.549 260.552 281.618C261.373 280.687 261.811 278.66 261.099 277.564C260.88 277.181 260.223 277.4 260.333 277.893C260.442 278.222 260.607 278.441 260.88 278.605C261.099 278.77 261.428 278.605 261.483 278.386C261.592 277.893 261.428 276.743 260.661 277.071C259.949 277.345 260.223 278.441 260.552 278.879C260.661 279.043 260.935 279.153 261.099 279.043C261.702 278.605 261.702 277.783 261.045 277.455C260.607 277.126 260.223 277.838 260.661 278.057Z" fill="white"/>
<path d="M260.716 278.222C260.935 279.482 261.373 281.015 262.852 281.235C264.33 281.454 264.768 280.029 264.768 278.879C264.768 278.331 263.947 278.331 263.947 278.879C263.947 279.701 263.673 280.851 262.578 280.303C261.756 279.92 261.647 278.824 261.537 278.003C261.428 277.509 260.607 277.729 260.716 278.222Z" fill="white"/>
<path d="M245.603 274.058C246.643 268.361 250.75 263.485 256.335 261.842C261.921 260.198 268.382 262.444 270.956 267.813C271.394 268.744 272.817 267.923 272.379 266.991C269.587 261.239 262.742 258.665 256.664 260.089C250.202 261.623 245.22 267.156 244.015 273.62C243.851 274.661 245.439 275.099 245.603 274.058Z" fill="#161616"/>
<path d="M248.504 265.786C248.45 263.047 248.942 260.308 250.092 257.843C250.202 257.624 250.311 257.46 250.366 257.24C250.75 256.583 250.804 256.473 250.476 256.912C250.147 257.186 250.202 257.405 250.695 257.733C250.804 257.898 250.969 258.117 251.078 258.281C251.899 259.596 252.611 260.966 253.214 262.39C253.597 263.376 255.185 262.938 254.802 261.952C254.254 260.637 251.735 253.954 249.6 255.433C248.559 256.145 247.902 258.555 247.574 259.706C246.971 261.678 246.752 263.759 246.807 265.841C246.916 266.827 248.559 266.827 248.504 265.786Z" fill="#092B47"/>
<path d="M265.206 261.349C265.754 260.418 266.301 259.487 266.904 258.555C267.177 258.172 267.561 257.788 267.725 257.35C268.108 257.131 268.163 256.912 267.944 256.638C267.725 256.255 267.78 256.364 268.053 256.967C268.984 259.322 269.641 261.623 269.915 264.198C270.025 265.239 271.667 265.239 271.558 264.198C271.394 262.39 271.065 260.637 270.572 258.884C270.244 257.898 269.751 255.652 268.82 255.049C268.108 254.611 267.506 254.94 267.013 255.542C265.754 257.022 264.768 258.829 263.782 260.528C263.235 261.404 264.658 262.226 265.206 261.349Z" fill="#092B47"/>
<path d="M244.124 273.182C243.741 282.385 252.064 290.274 261.318 288.357C265.589 287.48 269.532 284.686 271.558 280.797C273.693 276.688 274.898 270.169 272.105 266.115C271.503 265.239 270.079 266.061 270.682 266.937C273.146 270.608 271.941 276.633 269.97 280.304C268.163 283.645 264.603 286.001 260.88 286.768C252.612 288.411 245.438 281.29 245.767 273.182C245.767 272.087 244.124 272.087 244.124 273.182Z" fill="#092B47"/>
<path d="M245.274 287.644C246.588 282.768 253.159 283.042 256.609 285.179C260.278 287.37 262.14 291.643 262.523 295.751C262.632 296.902 263.07 298.052 261.154 297.34C260.442 297.066 259.511 296.025 258.964 295.478C257.978 294.492 257.102 293.451 256.007 292.629C254.802 291.698 253.543 291.15 252.064 290.876C249.764 290.438 245.603 290.712 245.384 287.425C245.329 286.384 243.686 286.384 243.741 287.425C243.905 289.561 245.274 290.985 247.245 291.698C248.779 292.245 250.476 292.136 252.064 292.519C254.035 293.012 255.35 294.053 256.718 295.478C258.087 296.847 260.442 299.915 262.797 299.477C264.768 299.093 264.33 296.847 264.166 295.368C263.563 290.109 260.771 284.905 255.623 282.878C251.297 281.18 245.055 282.166 243.741 287.26C243.412 288.246 245 288.685 245.274 287.644Z" fill="#092B47"/>
<path d="M267.123 280.523C269.368 277.51 274.46 278.715 276.815 280.742C278.184 281.892 279.115 283.481 279.553 285.234C279.662 285.782 279.936 286.932 279.772 287.535C279.224 289.123 278.074 288.63 277.089 287.863C275.72 286.822 274.679 285.343 272.982 284.686C272.16 284.357 271.339 284.303 270.463 284.357C269.642 284.357 268.875 284.576 268.054 284.467C266.52 284.248 264.385 282.823 266.958 280.851C267.78 280.194 266.63 279.044 265.808 279.701C264.549 280.687 263.892 282.166 264.44 283.755C265.206 285.836 267.177 286.275 269.203 286.165C271.23 286.056 272.544 286.11 274.186 287.48C274.953 288.137 275.61 288.904 276.486 289.507C277.636 290.328 279.334 291.095 280.593 289.945C283.495 287.261 280.155 281.29 277.855 279.427C274.57 276.743 268.546 275.976 265.808 279.756C265.097 280.523 266.52 281.344 267.123 280.523Z" fill="#092B47"/>
<path d="M248.45 283.097C252.009 281.947 257.43 284.193 259.62 287.096C259.785 287.315 260.113 287.096 259.949 286.877C257.649 283.754 252.173 281.454 248.34 282.714C248.066 282.768 248.176 283.152 248.45 283.097Z" fill="white"/>
<path d="M267.506 280.742C269.094 278.88 271.394 278.058 273.803 278.551C274.077 278.606 274.187 278.222 273.913 278.168C271.394 277.675 268.875 278.496 267.232 280.468C267.068 280.687 267.342 280.961 267.506 280.742Z" fill="white"/>
<path d="M250.477 257.405C251.024 258.829 251.407 260.253 251.572 261.732C251.681 261.678 251.791 261.623 251.9 261.568C251.627 261.294 251.353 261.13 251.024 260.965C250.86 260.911 250.696 260.965 250.696 261.13C250.696 261.623 250.641 262.061 250.641 262.554C250.75 262.499 250.86 262.445 250.969 262.39C250.203 261.513 249.6 263.485 249.381 263.869C249.272 264.088 249.6 264.307 249.71 264.088C249.765 263.978 250.477 262.445 250.641 262.664C250.75 262.828 250.969 262.664 250.969 262.499C250.969 262.006 251.024 261.568 251.024 261.075C250.915 261.13 250.805 261.185 250.696 261.239C251.024 261.349 251.243 261.513 251.462 261.787C251.572 261.897 251.846 261.842 251.791 261.623C251.572 260.089 251.243 258.61 250.641 257.186C250.75 257.076 250.367 257.186 250.477 257.405Z" fill="white"/>
<path d="M267.396 256.693C266.794 257.843 266.465 258.993 266.355 260.308C266.355 260.418 266.52 260.527 266.629 260.527C267.396 260.308 267.505 260.911 267.56 261.568C267.56 261.733 267.779 261.842 267.889 261.733C268.162 262.171 268.382 262.554 268.655 262.993C268.601 263.266 269.039 263.376 269.039 263.102C269.148 262.335 268.655 260.363 267.615 261.459C267.724 261.513 267.834 261.568 267.943 261.623C267.889 261.13 267.779 260.692 267.67 260.199C267.67 260.089 267.56 260.034 267.451 260.034C267.067 260.034 266.794 260.089 266.465 260.199C266.575 260.253 266.629 260.308 266.739 260.418C266.794 259.213 267.122 258.117 267.724 257.021C267.889 256.638 267.505 256.419 267.396 256.693Z" fill="white"/>
<path d="M301.729 224.21C302.496 229.469 303.975 237.796 307.041 247.656C313.502 268.254 321.114 277.074 331.189 300.958C333.708 306.929 337.267 315.914 340.772 327.253C347.288 329.39 359.389 332.293 374.174 329.718C398.487 325.5 412.778 309.395 416.776 304.519C408.452 289.18 400.074 272.582 391.916 254.778C383.811 237.138 376.748 220.156 370.615 203.996C365.468 202.078 351.997 197.805 335.46 201.859C315.693 206.625 304.796 220.156 301.729 224.21Z" fill="#F16A46"/>
<path opacity="0.13" d="M349.807 199.995C351.887 204.377 354.516 210.348 357.308 217.579C366.07 240.587 369.246 259.487 370.396 266.225C372.86 280.139 374.995 301.723 371.491 329.443C379.102 329.223 384.742 327.47 388.301 326.101C398.486 322.047 405.879 314.98 412.997 308.133C414.64 306.599 415.899 305.229 416.721 304.408C414.366 300.354 410.807 293.999 406.645 286.056C394.599 263.157 386.713 244.148 380.088 228.043C377.733 222.4 374.502 214.293 370.724 204.487C367.712 203.227 363.934 201.967 359.499 201.145C355.885 200.433 352.599 200.104 349.807 199.995Z" fill="#494949"/>
<path opacity="0.1" d="M386.057 243.437C386.988 253.242 387.754 261.46 388.302 267.376C390.382 290.548 390.766 296.958 390.93 301.066C391.368 310.763 391.368 318.706 391.313 323.91C394.708 322.705 399.089 320.733 403.634 317.555C409.329 313.556 413.162 309.174 415.626 305.942C405.769 285.07 395.913 264.253 386.057 243.437Z" fill="#494949"/>
<path d="M347.179 190.354C344.551 191.121 343.127 194.901 342.251 198.79C340.499 206.734 341.429 213.526 341.758 215.882C343.346 226.345 346.193 234.179 347.124 236.754C349.534 243.108 352.819 251.599 359.992 260.638C364.099 265.788 367.604 270.225 374.065 273.512C377.843 275.484 385.674 279.483 393.723 276.306C394.106 276.141 401.992 272.909 404.018 266.007C404.456 264.473 404.565 262.939 404.729 259.926C404.839 258.118 404.894 254.941 404.51 250.997C403.963 245.793 402.813 241.739 401.937 238.835C398.049 225.962 396.132 219.552 392.08 213.965C388.74 209.363 384.962 204.104 378.719 203.392C378.172 203.337 371.875 202.735 368.151 207.117C365.578 210.185 365.742 213.965 365.797 216.485C365.961 221.305 367.823 224.757 370.725 230.07C373.627 235.329 374.777 235.987 378.227 242.232C382.936 250.778 382.443 251.599 382.224 251.818C381.293 252.64 377.57 250.065 376.748 249.463C375.982 248.915 374.886 248.148 373.517 246.669C369.246 241.903 366.727 234.727 366.727 234.727C364.482 230.289 361.525 223.99 358.514 215.992C359.445 212.431 360.868 209.911 362.018 208.267C363.88 205.638 365.961 203.83 366.454 200.543C366.673 199.283 366.563 198.188 366.454 197.476C367.385 196.599 367.658 195.284 367.166 194.189C366.563 192.929 365.085 192.326 363.661 192.764C363.661 192.6 363.497 191.176 362.237 190.409C361.197 189.751 359.773 189.861 358.733 190.628C357.09 189.368 355.721 189.039 354.736 188.984C353.586 188.93 353.038 189.204 350.3 189.697C348 190.299 347.836 190.19 347.179 190.354Z" fill="white"/>
<path d="M360.922 213.471C362.401 209.8 364.262 206.459 366.288 203.062C367.329 201.309 368.533 199.118 367.11 197.201C363.879 193.037 359.498 198.351 358.13 201.09C357.637 202.021 359.06 202.843 359.553 201.912C360.375 200.268 361.305 198.242 363.222 197.694C363.77 197.42 364.317 197.42 364.919 197.584C365.084 198.844 365.248 200.104 365.467 201.364C365.303 202.076 364.317 203.227 363.934 203.884C362.182 206.787 360.758 209.855 359.444 212.978C358.951 214.018 360.539 214.402 360.922 213.471Z" fill="black"/>
<path d="M343.017 220.539C342.195 214.678 342.086 208.706 342.743 202.845C343.345 197.476 344.495 189.314 351.942 190.848C352.983 191.067 353.421 189.478 352.38 189.259C346.521 188.054 342.853 192.217 341.867 197.531C340.388 205.255 340.334 213.144 341.429 220.977C341.593 222.018 343.181 221.58 343.017 220.539Z" fill="black"/>
<path d="M349.862 195.283C350.464 193.859 351.121 192.38 352.271 191.284C354.243 189.367 356.761 190.407 358.897 191.448C359.828 191.941 360.649 190.517 359.718 190.024C357.473 188.874 354.954 187.778 352.545 189.038C350.464 190.134 349.369 192.38 348.493 194.407C348.055 195.447 349.479 196.269 349.862 195.283Z" fill="black"/>
<path d="M354.735 195.776C356.761 193.147 359.444 190.408 362.948 192.489C363.879 193.037 364.701 191.613 363.77 191.065C359.608 188.6 356.104 191.284 353.585 194.571C352.928 195.448 354.078 196.598 354.735 195.776Z" fill="black"/>
<path d="M358.404 196.981C359.445 195.886 360.54 194.735 361.963 194.187C363.661 193.475 366.782 193.913 366.125 196.488C365.906 197.529 367.439 197.967 367.713 196.926C368.261 194.68 366.782 192.599 364.537 192.215C361.525 191.667 359.171 193.859 357.254 195.831C356.542 196.598 357.692 197.748 358.404 196.981Z" fill="black"/>
<path d="M359.06 212.649C357.144 216.757 359.498 220.921 361.141 224.701C363.441 230.014 365.85 235.328 368.807 240.259C372.64 246.723 380.963 258.336 389.67 251.708C390.491 251.05 389.67 249.626 388.849 250.284C380.471 256.693 372.695 243.765 369.3 237.793C367.329 234.287 365.576 230.672 363.934 227.001C362.291 223.331 358.622 217.579 360.539 213.47C360.922 212.539 359.498 211.663 359.06 212.649Z" fill="black"/>
<path d="M366.125 208.486C361.306 224.865 376.091 237.575 381.512 251.599C381.895 252.585 383.483 252.146 383.1 251.16C377.843 237.575 363.059 224.756 367.713 208.924C367.987 207.883 366.399 207.445 366.125 208.486Z" fill="black"/>
<path d="M341.374 220.099C344.167 235.438 350.683 249.955 360.266 262.28C364.92 268.197 370.232 273.949 377.569 276.359C383.812 278.386 392.408 279.427 398.213 275.647C404.565 271.593 405.386 263.321 405.66 256.473C405.715 255.433 404.072 255.433 404.017 256.473C403.689 265.293 401.717 275.044 391.259 276.304C381.621 277.455 372.641 273.62 366.125 266.663C354.023 253.789 346.083 236.971 342.907 219.661C342.798 218.62 341.21 219.058 341.374 220.099Z" fill="black"/>
<path d="M367.22 210.677C368.972 203.665 377.405 203.172 382.662 206.239C388.028 209.362 391.697 215.004 394.38 220.428C397.172 226.125 399.199 232.26 401.17 238.286C403.415 245.189 405.112 252.42 403.962 259.706C403.798 260.747 405.386 261.185 405.55 260.144C406.865 251.817 404.784 243.764 402.101 235.876C399.637 228.7 397.227 221.304 393.12 214.84C389.671 209.362 384.523 203.665 377.734 202.733C372.477 202.021 366.891 204.87 365.577 210.238C365.358 211.279 366.946 211.717 367.22 210.677Z" fill="black"/>
<path opacity="0.1" d="M349.206 189.642C353.587 187.889 357.858 189.807 358.898 190.3C355.832 194.353 349.316 204.159 348.768 218.019C347.947 237.74 359.72 250.833 363.881 255.489C369.248 261.46 376.257 269.239 385.292 268.144C390.384 267.541 395.203 264.145 397.667 259.817C400.131 255.489 399.967 250.778 397.01 238.617C392.465 220.21 387.482 209.418 388.194 209.09C388.906 208.761 394.819 218.019 399.255 229.632C399.693 230.838 403.362 240.589 404.676 254.01C405.497 262.282 404.785 265.678 403.088 268.691C400.46 273.348 396.188 275.43 394.546 276.142C387.92 278.936 381.568 276.963 378.556 275.923C367.769 272.307 362.019 263.542 356.215 254.722C347.29 241.082 344.825 229.413 342.471 218.183C340.828 210.404 339.733 201.365 343.84 194.737C344.552 193.367 346.14 190.902 349.206 189.642Z" fill="#494949"/>
<path d="M270.135 162.963C269.97 165.537 270.901 168.441 272.873 174.247C275.063 180.766 277.417 187.724 283.331 194.571C287.11 198.954 291.709 204.322 299.54 205.856C305.727 207.061 310.929 205.308 313.558 204.213C314.16 205.856 314.981 207.609 316.022 209.417C318.76 214.238 322.155 217.634 324.838 219.88C326.864 219.661 330.806 218.839 334.201 215.772C336.83 213.361 338.089 210.513 338.856 208.65C339.787 206.459 340.28 204.541 340.499 203.172C338.856 202.186 337.049 200.871 335.297 199.063C329.821 193.476 328.342 186.847 327.904 183.67C328.616 177.37 329.383 171.015 330.095 164.715C330.916 164.825 332.668 164.935 334.201 163.894C335.899 162.743 336.227 160.826 336.665 158.69C337.104 156.553 337.596 153.814 336.392 150.692C335.844 149.322 334.092 144.939 330.368 144.666C327.849 144.446 325.276 146.145 323.797 148.774C320.621 145.706 313.831 140.283 304.304 139.407C287.821 137.873 271.066 150.746 270.135 162.963Z" fill="white"/>
<path d="M294.447 187.997C294.009 189.148 295.269 190.791 296.199 191.613C298.773 193.859 303.318 193.749 306.603 192.215C311.203 190.079 312.681 185.477 313.339 183.396C314.105 181.095 315.091 178.082 313.503 175.397C312.134 173.042 309.725 172.22 308.794 171.946C307.863 173.864 307.151 175.288 306.603 176.219C305.946 177.37 305.727 177.753 305.344 178.63C304.796 179.78 304.742 180.218 303.975 181.259C300.854 185.313 296.583 186.792 296.583 186.792C295.597 187.011 294.721 187.23 294.447 187.997Z" fill="black"/>
<path d="M271.01 169.536C275.336 183.067 280.757 198.844 294.72 205.199C300.415 207.773 307.205 208.266 313.009 205.746C319.526 202.952 323.359 196.488 325.987 190.243C329.437 182.081 330.915 173.206 330.368 164.387C330.313 163.346 328.67 163.346 328.725 164.387C329.272 173.59 327.63 182.848 323.742 191.229C319.964 199.392 313.995 205.911 304.412 205.801C285.138 205.582 277.307 184.327 272.489 169.153C272.27 168.057 270.736 168.495 271.01 169.536Z" fill="black"/>
<path d="M324.4 150.308C324.454 147.021 327.849 145.049 330.861 145.98C333.654 146.912 335.406 149.651 336.008 152.39C336.556 155.019 336.337 158.087 335.515 160.607C334.858 162.688 334.037 163.784 331.518 163.784C330.642 163.784 329.766 163.455 328.835 163.455C327.795 163.455 327.795 165.099 328.835 165.099C330.697 165.099 332.504 165.975 334.311 165.044C335.625 164.387 336.392 163.072 336.939 161.702C338.363 157.977 338.527 152.937 336.72 149.267C335.242 146.254 332.066 143.679 328.561 144.063C325.33 144.392 322.812 147.021 322.757 150.253C322.757 151.349 324.4 151.349 324.4 150.308Z" fill="black"/>
<path d="M327.63 180.328C327.466 189.367 331.463 198.022 338.581 203.665C339.403 204.322 340.553 203.172 339.731 202.514C332.941 197.146 329.108 189.038 329.273 180.328C329.273 179.287 327.63 179.287 327.63 180.328Z" fill="black"/>
<path d="M313.503 204.87C315.583 210.622 318.978 215.662 323.523 219.716C324.29 220.428 325.495 219.278 324.673 218.565C320.293 214.676 317.062 209.91 315.036 204.432C314.707 203.446 313.119 203.884 313.503 204.87Z" fill="black"/>
<path d="M323.907 220.263C328.616 221.962 333.325 217.963 336.227 214.621C339.294 211.115 341.977 206.568 340.662 201.802C340.389 200.761 338.801 201.2 339.074 202.24C340.17 206.404 337.706 210.458 335.022 213.471C332.504 216.319 328.397 220.154 324.29 218.675C323.359 218.291 322.921 219.88 323.907 220.263Z" fill="black"/>
<path d="M277.144 163.784C276.432 161.757 278.075 159.566 279.279 158.141C281.086 155.895 283.879 155.293 285.96 157.594C288.369 160.223 289.026 164.934 289.355 168.331C289.574 170.686 288.752 173.699 290.121 175.781C291.6 178.027 294.338 179.342 296.911 179.835C297.952 180.054 298.39 178.465 297.349 178.246C295.98 177.972 294.776 177.534 293.571 176.767C291.6 175.452 291.162 174.028 291.107 171.672C291.052 169.646 290.997 167.673 290.669 165.647C290.121 162.305 289.19 158.032 286.452 155.786C284.153 153.869 281.305 153.923 279.06 155.841C276.925 157.703 274.461 161.264 275.501 164.167C275.939 165.208 277.527 164.77 277.144 163.784Z" fill="black"/>
<path d="M292.311 151.951C292.694 145.323 300.963 142.912 304.796 148.336C305.398 149.212 306.822 148.39 306.22 147.514C301.456 140.721 291.161 143.624 290.668 151.951C290.614 152.992 292.256 152.992 292.311 151.951Z" fill="black"/>
<path d="M284.864 168.167C284.098 167.126 283.659 165.975 283.605 164.715C283.167 164.935 282.783 165.208 282.345 165.428C283.605 166.249 284.262 167.564 284.207 169.043C284.536 168.769 284.919 168.495 285.247 168.276C283.878 167.783 283.002 166.249 283.276 164.825C282.893 164.989 282.455 165.154 282.072 165.318C282.729 165.701 283.276 166.249 283.659 166.961C283.824 167.29 283.933 167.619 283.988 168.002C283.988 168.276 283.988 167.948 283.933 167.838C283.824 167.619 283.714 167.455 283.605 167.235C283.167 166.249 281.743 167.126 282.181 168.057C282.51 168.824 283.057 169.646 284.043 169.701C284.864 169.755 285.576 169.208 285.685 168.386C285.85 166.578 284.426 164.77 282.948 163.948C282.51 163.675 281.853 163.894 281.743 164.442C281.305 166.797 282.619 169.098 284.864 169.92C285.412 170.084 285.905 169.646 285.905 169.153C285.959 167.071 284.974 165.208 283.221 164.113C282.729 163.784 281.962 164.222 281.962 164.825C282.017 166.359 282.51 167.838 283.44 169.098C284.098 169.865 285.521 169.043 284.864 168.167Z" fill="black"/>
<path d="M300.197 157.594C299.923 157.265 299.704 156.882 299.594 156.443C299.594 156.334 299.485 155.676 299.594 155.622C299.704 155.567 299.978 156.443 300.032 156.498C300.142 156.936 300.087 157.429 299.868 157.813C300.251 157.703 300.635 157.594 301.018 157.539C299.649 156.772 298.992 155.348 299.211 153.814C298.773 154.033 298.39 154.307 297.952 154.526C299.485 155.183 300.361 156.772 299.978 158.415C300.306 158.251 300.635 158.032 300.963 157.868C300.142 157.594 299.485 156.882 299.32 156.005C299.32 155.95 299.32 155.457 299.266 155.457C299.156 155.512 299.047 155.567 298.882 155.622C298.937 155.731 299.047 155.896 299.101 156.005C299.32 156.608 299.32 157.21 299.266 157.868C299.759 157.649 300.197 157.484 300.689 157.265C300.197 156.882 299.813 156.443 299.54 155.841C299.047 154.909 297.623 155.731 298.116 156.662C298.444 157.32 298.937 157.922 299.54 158.415C300.142 158.908 300.854 158.58 300.963 157.813C301.073 156.717 300.963 155.238 300.142 154.416C299.485 153.759 298.28 153.704 297.842 154.69C296.966 156.608 298.828 158.854 300.525 159.456C300.963 159.621 301.456 159.292 301.511 158.909C302.113 156.608 300.963 154.088 298.718 153.156C298.116 152.883 297.568 153.211 297.459 153.869C297.185 155.95 298.28 157.977 300.087 159.018C300.416 159.237 301.018 159.128 301.237 158.744C301.675 157.703 301.785 156.662 301.401 155.622C301.073 154.8 300.361 153.923 299.43 154.033C297.021 154.307 298.061 157.758 299.047 158.854C299.759 159.566 300.908 158.361 300.197 157.594Z" fill="black"/>
<path d="M314.488 204.706C314.488 204.761 314.488 204.761 314.433 204.815C314.762 204.651 315.091 204.432 315.419 204.268C315.364 204.268 315.31 204.213 315.255 204.213C315.419 204.596 315.583 205.034 315.748 205.418C315.857 205.199 317.336 204.487 317.774 204.103C318.759 203.281 319.581 202.186 320.347 201.145C322.045 198.899 323.304 196.434 324.345 193.859C323.797 193.695 323.304 193.585 322.757 193.421C321.114 198.132 319.964 204.706 315.364 207.5C315.748 207.883 316.131 208.267 316.514 208.65C317.609 207.007 318.705 205.308 319.8 203.665C320.292 202.898 319.143 201.967 318.485 202.679C317.609 203.61 316.678 204.596 315.802 205.527C316.186 205.911 316.569 206.294 316.952 206.678C317.774 205.692 318.54 204.651 319.252 203.61C319.8 202.843 318.595 201.912 317.938 202.624C317.171 203.446 316.405 204.048 315.419 204.541C315.857 204.761 316.24 205.034 316.678 205.254C316.678 205.089 316.624 204.925 316.624 204.761C316.514 203.72 314.871 203.72 314.981 204.761C314.981 204.925 315.036 205.089 315.036 205.254C315.091 205.856 315.693 206.294 316.295 205.966C317.39 205.363 318.266 204.706 319.143 203.775C318.705 203.446 318.266 203.117 317.828 202.788C317.171 203.72 316.514 204.651 315.802 205.527C315.145 206.349 316.24 207.5 316.952 206.678C317.828 205.747 318.759 204.761 319.635 203.829C319.197 203.501 318.759 203.172 318.321 202.843C317.226 204.487 316.131 206.185 315.036 207.828C314.598 208.54 315.474 209.362 316.186 208.979C321.223 205.911 322.538 199.118 324.345 193.914C324.673 192.873 323.14 192.544 322.757 193.476C321.607 196.269 320.128 199.009 318.157 201.309C317.226 202.405 315.748 203.008 314.872 203.994C314.652 204.213 314.433 204.268 314.324 204.541C314.05 205.034 314.269 205.528 314.817 205.747C314.871 205.747 314.926 205.801 314.981 205.801C315.419 205.966 315.857 205.637 315.967 205.254C315.967 205.199 315.967 205.199 316.021 205.144C316.459 204.158 314.871 203.72 314.488 204.706Z" fill="black"/>
<path d="M320.566 203.062C321.059 202.514 321.387 201.966 321.552 201.309C321.825 200.323 320.566 199.994 320.073 200.652C318.923 202.185 317.773 203.719 316.623 205.253C315.966 206.075 317.39 206.897 318.047 206.075C319.197 204.541 320.347 203.007 321.497 201.473C321.004 201.254 320.511 201.035 320.018 200.816C319.909 201.199 319.744 201.528 319.471 201.857C318.704 202.733 319.909 203.884 320.566 203.062Z" fill="black"/>
<path d="M295.268 189.477C293.735 186.409 295.377 185.258 298.444 184.437C298.827 184.327 299.21 184.272 299.539 184.108C300.853 183.505 301.62 182.191 302.167 180.931C303.043 179.068 303.536 177.041 304.686 175.343C307.096 171.673 311.367 171.837 312.736 176.219C314.105 180.602 312.407 185.477 309.505 188.819C308.081 190.463 306.329 191.996 304.248 192.709C302.441 193.366 300.853 193.147 299.101 192.38C297.841 191.832 295.542 190.736 295.213 189.312C294.994 188.271 293.406 188.71 293.625 189.75C294.227 192.599 298.499 194.352 301.072 194.735C303.865 195.174 306.493 193.804 308.629 192.051C313.393 188.107 316.35 181.15 314.05 175.124C311.586 168.605 304.905 171.015 302.441 176.165C301.675 177.753 301.291 180.438 300.032 181.588C298.444 183.067 296.418 182.519 294.775 183.67C292.475 185.313 292.694 188.217 293.844 190.463C294.337 191.284 295.761 190.463 295.268 189.477Z" fill="black"/>
<path d="M294.173 187.778C302.66 187.559 306.767 179.67 308.629 172.439C308.903 171.398 307.315 170.96 307.041 172.001C305.398 178.465 301.839 185.915 294.173 186.134C293.132 186.189 293.132 187.833 294.173 187.778Z" fill="black"/>
<path d="M271.668 168.66C270.682 169.207 264.713 162.688 262.194 153.978C260.333 147.624 260.88 141.981 261.537 138.42C262.468 135.572 263.782 132.504 265.589 129.381C273.365 116.015 285.631 109.715 291.983 107.031C290.669 108.291 289.135 109.934 287.712 112.016C285.74 114.755 284.481 117.33 283.66 119.466C285.521 117.877 287.657 116.289 289.957 114.755C295.104 111.304 300.087 108.839 304.413 107.086C303.756 109.879 303.044 112.673 302.387 115.412C303.92 114.536 306.055 113.276 308.684 112.016C311.586 110.646 317.555 107.798 318.486 109.058C318.759 109.441 318.431 109.879 317.938 111.468C317.281 113.55 317.062 115.303 316.952 116.453C318.65 116.179 320.566 115.96 322.647 115.905C324.947 115.796 327.028 115.905 328.89 116.07C328.232 118.59 327.575 121.055 326.918 123.575C328.232 124.068 330.094 124.999 332.011 126.533C337.158 130.751 338.636 136.448 339.02 138.694C339.841 144.063 338.527 148.555 337.541 151.02C334.913 145.432 329.711 143.241 326.754 144.611C324.947 145.432 322.866 148.062 323.085 150.746C323.14 151.349 323.304 151.897 323.468 152.28C321.552 150.527 318.65 148.171 314.872 145.98C311.093 143.789 306.877 141.324 301.292 140.612C290.778 139.242 282.564 144.994 280.374 146.583C276.979 148.993 271.449 152.883 270.463 159.073C269.477 164.277 272.434 168.276 271.668 168.66Z" fill="#F16A46"/>
<path opacity="0.11" d="M313.339 144.611C315.036 148.445 317.336 154.416 318.595 161.921C319.91 169.372 321.552 178.958 317.555 189.586C316.186 193.201 312.955 200.159 305.289 206.678C307.096 206.623 310.217 206.294 313.503 204.541C318.869 201.747 321.224 197.091 321.936 195.447C324.509 197.967 327.959 201.912 330.587 207.499C332.066 210.622 332.997 213.525 333.544 215.936C335.023 214.621 337.761 211.772 339.02 207.28C339.513 205.527 339.677 203.939 339.677 202.624C336.501 200.871 334.475 198.734 333.325 197.365C332.832 196.762 327.959 190.627 328.233 182.136C328.342 179.068 328.999 179.013 329.492 174.302C329.93 170.084 329.711 166.523 329.492 164.167C332.285 165.318 333.709 164.77 334.366 164.387C335.625 163.62 335.954 162.25 337.104 155.293C337.706 151.568 338.034 149.705 338.144 148.719C338.801 143.405 339.13 140.721 338.801 138.585C337.87 132.504 333.982 128.45 332.668 127.19C330.478 125.054 328.233 123.848 326.754 123.191C327.411 120.89 328.014 118.535 328.671 116.234C325.55 119.904 322.647 122.424 320.676 124.068C315.748 128.012 312.901 128.943 309.506 132.723C306.822 135.681 305.289 138.694 304.413 140.721C307.425 142.091 310.382 143.351 313.339 144.611Z" fill="#494949"/>
<path opacity="0.17" d="M290.778 107.633C288.917 108.455 284.536 110.755 281.47 115.631C280.703 116.836 279.005 119.849 278.513 124.067C277.965 128.724 279.115 132.394 279.772 134.202C279.991 129.655 281.086 122.314 285.467 114.754C287.164 111.906 289.026 109.55 290.778 107.633Z" fill="#494949"/>
<path opacity="0.08" d="M329.492 164.441C329.328 164.386 328.999 164.989 327.794 169.152C326.152 174.795 325.275 178.958 324.783 181.04C324.071 184.053 322.866 188.326 320.621 193.475C324.509 194.242 328.397 195.009 332.284 195.721C330.861 192.599 329.163 188.107 328.506 182.519C327.466 172.932 330.039 164.551 329.492 164.441Z" fill="#494949"/>
</svg>
