<svg width="31" height="18" viewBox="0 0 31 18" fill="none" xmlns="http://www.w3.org/2000/svg">
<path d="M1.02335 9.99998H26.7298L21.3243 15.364C20.9308 15.7545 20.9308 16.3877 21.3241 16.778C21.7176 17.1685 22.356 17.1685 22.7495 16.778L29.8749 9.70698C29.9217 9.66048 29.9636 9.60923 30.0003 9.55473C30.0172 9.52948 30.0291 9.50223 30.0437 9.47598C30.0603 9.44498 30.0795 9.41548 30.0928 9.38273C30.1072 9.34898 30.1152 9.31398 30.1253 9.27898C30.1336 9.25123 30.1444 9.22473 30.1502 9.19623C30.1633 9.13123 30.1701 9.06573 30.1701 8.99998L30.1699 8.99773C30.1696 8.93298 30.1631 8.86798 30.1502 8.80423C30.1442 8.77423 30.1329 8.74648 30.124 8.71698C30.1142 8.68373 30.1067 8.64998 30.0931 8.61773C30.0784 8.58298 30.0588 8.55148 30.0407 8.51873C30.027 8.49423 30.0162 8.46923 30.0006 8.44573C29.9638 8.39048 29.9215 8.33898 29.8744 8.29223L22.7493 1.22198C22.3557 0.831484 21.7176 0.831483 21.3241 1.22173C20.9306 1.61223 20.9306 2.24548 21.3241 2.63623L26.7295 7.99998H1.02335C0.466834 7.99998 0.015625 8.44773 0.015625 8.99998C0.015625 9.55223 0.466834 9.99998 1.02335 9.99998Z" fill="#F16A46"/>
</svg>
